<?xml version="1.0" encoding="UTF-8"?>
<!DOCTYPE svg PUBLIC "-//W3C//DTD SVG 1.1//EN" "http://www.w3.org/Graphics/SVG/1.1/DTD/svg11.dtd">
<!-- Creator: CorelDRAW X8 -->
<svg xmlns="http://www.w3.org/2000/svg" xml:space="preserve" width="196.205mm" height="51.9743mm" version="1.1" style="shape-rendering:geometricPrecision; text-rendering:geometricPrecision; image-rendering:optimizeQuality; fill-rule:evenodd; clip-rule:evenodd"
viewBox="0 0 22086 5851"
 xmlns:xlink="http://www.w3.org/1999/xlink">
 <defs>
  <style type="text/css">
   <![CDATA[
    .fil4 {fill:black;fill-rule:nonzero}
    .fil2 {fill:#7C3500;fill-rule:nonzero}
    .fil5 {fill:#994500;fill-rule:nonzero}
    .fil1 {fill:#FABF1B;fill-rule:nonzero}
    .fil3 {fill:white;fill-rule:nonzero}
    .fil0 {fill:white;fill-rule:nonzero}
   ]]>
  </style>
 </defs>
 <g id="Layer_x0020_1">
  <metadata id="CorelCorpID_0Corel-Layer"/>
  <g id="_1612919206336">
   <polygon class="fil0" points="2787,4765 1884,4765 1884,2946 898,2946 898,4765 0,4765 0,691 898,691 898,2249 1884,2249 1884,691 2787,691 "/>
   <path class="fil0" d="M4807 1753c-24,-124 -54,-259 -65,-383l-130 0c-12,124 -36,259 -59,383l-242 1246 732 0 -236 -1246zm-626 1943l-207 1069 -921 0 903 -3838c36,-148 160,-236 307,-236l827 0c148,0 272,88 313,236l898 3838 -916 0 -206 -1069 -998 0z"/>
   <path class="fil0" d="M9495 4440c0,213 -106,325 -313,325l-537 0c-183,0 -290,-77 -355,-266l-661 -2007c-77,-231 -142,-526 -201,-762l-41 0c12,254 24,519 24,767l0 2268 -845 0 0 -3750c0,-212 112,-324 313,-324l538 0c189,0 289,76 354,265l655 1955c77,230 136,496 213,773l41 0c-17,-283 -17,-549 -17,-803l0 -2190 832 0 0 3749z"/>
   <path class="fil0" d="M11509 1753c-24,-124 -54,-259 -65,-383l-130 0c-12,124 -36,259 -59,383l-242 1246 732 0 -236 -1246zm-626 1943l-207 1069 -921 0 903 -3838c36,-148 160,-236 307,-236l827 0c148,0 272,88 313,236l898 3838 -916 0 -206 -1069 -998 0z"/>
   <path class="fil0" d="M14585 2610c319,0 413,-136 413,-644 0,-508 -88,-638 -413,-638l-419 0 0 1282 419 0zm1317 -644c0,1051 -307,1335 -1175,1335 -189,0 -384,-12 -561,-36l0 1500 -898 0 0 -4074c420,-48 709,-54 1335,-54 992,0 1299,290 1299,1329z"/>
  </g>
  <path class="fil1" d="M21961 1681c431,1291 -293,2697 -1618,3140 -1325,443 -2749,-244 -3181,-1535 -432,-1291 292,-2697 1618,-3140 1325,-443 2749,244 3181,1535z"/>
  <path class="fil2" d="M21961 1681c-53,-155 -120,-304 -203,-446 -82,-141 -178,-274 -288,-395 -218,-244 -487,-440 -782,-579 -295,-139 -618,-218 -943,-234 -325,-16 -652,31 -960,136 -153,53 -302,120 -442,200 -141,81 -274,175 -397,280 -123,105 -236,222 -336,349 -100,127 -188,263 -263,406 -74,144 -134,294 -179,449 -45,155 -74,314 -87,475 -14,160 -11,322 9,482 19,160 55,318 106,471 51,152 118,300 198,439 81,140 176,271 283,391 214,241 477,438 769,578 145,69 298,125 454,166 156,41 317,67 478,77 323,21 651,-21 959,-122 309,-101 599,-260 849,-469 250,-208 460,-465 612,-754 153,-288 250,-607 277,-933 14,-163 12,-327 -8,-489 -19,-162 -55,-323 -106,-478zm0 0c51,155 88,315 108,478 19,162 23,326 9,489 -14,163 -43,325 -89,482 -45,158 -106,310 -182,456 -75,145 -164,283 -266,412 -102,128 -216,247 -341,354 -125,107 -259,202 -402,283 -143,82 -294,150 -449,203 -312,107 -644,155 -974,138 -329,-16 -656,-97 -956,-237 -299,-141 -572,-340 -794,-587 -110,-124 -209,-259 -292,-402 -84,-143 -152,-295 -205,-453 -105,-314 -145,-651 -117,-981 28,-331 126,-654 281,-947 155,-292 368,-553 621,-765 254,-212 548,-373 861,-475 156,-51 317,-87 481,-108 163,-21 328,-26 491,-16 164,11 327,37 486,78 158,41 313,98 460,169 148,71 289,156 420,254 131,98 252,210 361,332 108,122 205,255 287,397 81,141 149,291 201,446z"/>
  <path class="fil3" d="M18307 2377c-32,382 -273,673 -539,651 -265,-22 -453,-350 -421,-732 32,-382 273,-673 539,-651 265,23 454,350 421,732z"/>
  <path class="fil2" d="M18305 2377c6,-77 5,-155 -8,-231 -12,-77 -33,-152 -67,-222 -33,-70 -78,-134 -136,-185 -58,-51 -132,-85 -209,-91 -77,-6 -154,15 -220,55 -66,40 -121,97 -165,160 -45,63 -78,133 -103,207 -25,73 -40,149 -47,226 -6,77 -4,155 8,231 12,77 34,152 67,222 33,69 78,134 136,185 58,51 131,85 208,91 77,7 155,-14 220,-55 66,-40 122,-96 166,-159 45,-63 79,-134 104,-207 25,-73 39,-150 46,-227zm4 0c-7,78 -21,155 -46,229 -24,73 -57,145 -101,210 -44,64 -98,123 -166,166 -33,22 -70,39 -109,50 -38,11 -79,15 -120,13 -41,-2 -81,-12 -119,-28 -38,-16 -73,-38 -104,-64 -32,-26 -60,-56 -84,-88 -25,-32 -46,-67 -64,-103 -35,-72 -59,-150 -72,-229 -13,-79 -16,-160 -9,-240 7,-80 23,-159 49,-235 26,-75 63,-148 110,-213 47,-65 107,-123 178,-164 35,-20 73,-36 113,-45 40,-9 82,-12 122,-8 41,5 80,16 116,33 37,18 70,41 100,68 59,53 102,121 135,192 33,71 53,147 64,224 12,77 13,155 7,232z"/>
  <path class="fil3" d="M19944 1284c156,362 41,759 -257,888 -298,129 -666,-60 -822,-421 -157,-362 -42,-759 256,-888 298,-129 666,60 823,421z"/>
  <path class="fil2" d="M19942 1285c-34,-78 -79,-151 -135,-216 -55,-64 -121,-120 -195,-162 -74,-43 -156,-71 -241,-79 -84,-9 -171,4 -249,38 -78,33 -146,88 -198,156 -51,67 -87,146 -106,229 -20,82 -24,169 -15,253 9,84 31,167 65,245 34,78 79,152 134,216 55,65 121,120 195,163 73,42 155,70 240,79 84,8 171,-4 249,-37 78,-34 146,-89 198,-156 52,-68 88,-147 107,-229 20,-83 25,-169 16,-254 -9,-85 -32,-168 -65,-246zm3 -2c34,79 57,162 67,247 10,85 7,172 -12,257 -19,83 -53,165 -105,235 -51,71 -121,129 -201,166 -80,37 -171,52 -260,45 -88,-8 -175,-35 -253,-78 -77,-43 -147,-100 -205,-167 -58,-67 -106,-143 -141,-224 -35,-82 -58,-168 -67,-256 -9,-89 -3,-178 19,-265 22,-86 61,-168 117,-237 55,-70 128,-125 210,-159 82,-33 172,-44 259,-33 86,10 169,42 243,85 74,44 140,102 195,167 55,65 100,139 134,217z"/>
  <path class="fil4" d="M17289 1611c-9,-23 -15,-47 -18,-70 -4,-24 -6,-47 -7,-70 0,-12 0,-23 1,-35 0,-12 1,-23 2,-35 3,-23 7,-46 12,-69 11,-46 27,-91 51,-135 24,-43 55,-86 96,-124 21,-19 44,-36 71,-51 26,-14 54,-26 85,-34 30,-8 61,-11 92,-9 30,1 60,7 87,16 26,9 51,21 73,36 6,3 11,7 16,11 5,4 10,7 15,12 10,8 19,16 28,25 17,18 32,37 45,58 6,10 12,21 18,32 5,11 10,22 14,34l-9 11c-34,-25 -68,-48 -105,-66 -36,-18 -75,-32 -114,-38 -40,-6 -80,-4 -118,9 -37,12 -71,34 -101,61 -30,27 -55,59 -78,93 -23,34 -42,70 -60,107 -17,38 -33,76 -46,115 -14,39 -26,79 -36,119l-14 -3z"/>
  <path class="fil5" d="M18307 2206c-58,159 -201,267 -359,254 -193,-17 -335,-209 -316,-429 17,-201 162,-356 333,-369 184,61 318,277 342,544z"/>
  <path class="fil4" d="M17990 1679c-173,0 -323,153 -340,354 -9,102 18,201 75,278 57,77 137,123 225,131 88,7 174,-25 243,-91 53,-51 90,-117 109,-190 4,28 6,57 8,86 -23,49 -54,93 -92,130 -69,66 -154,102 -243,102 -9,0 -19,-1 -28,-1 -99,-9 -188,-60 -251,-145 -62,-85 -91,-193 -82,-303 16,-193 146,-346 307,-380 30,6 60,16 88,30 -7,-1 -13,-1 -19,-1z"/>
  <path class="fil4" d="M18175 2115c-9,105 -101,183 -206,174 -105,-9 -183,-101 -174,-206 9,-105 101,-183 206,-174 105,9 183,101 174,206z"/>
  <path class="fil3" d="M17996 1965c-2,31 -47,52 -99,48 -53,-5 -93,-33 -91,-64 3,-31 48,-52 100,-48 53,5 93,33 90,64z"/>
  <path class="fil3" d="M18028 2291c-3,28 -21,50 -41,48 -20,-1 -34,-26 -32,-54 3,-29 21,-51 41,-49 20,2 34,26 32,55z"/>
  <path class="fil5" d="M19869 1226c-20,231 -200,405 -402,388 -203,-18 -352,-219 -332,-450 13,-150 94,-276 204,-341 199,8 399,128 530,324 2,26 2,53 0,79z"/>
  <path class="fil4" d="M19373 825c-33,16 -64,38 -93,66 -73,70 -118,167 -127,275 -9,107 19,211 79,292 59,81 143,130 236,138 193,16 364,-150 383,-371l18 1 -18 -1c3,-37 2,-73 -3,-109 14,20 28,41 41,62 0,17 -1,33 -2,50 -19,229 -193,405 -393,405 -9,0 -19,-1 -29,-1 -103,-9 -196,-63 -262,-152 -65,-89 -96,-201 -86,-317 10,-116 59,-222 138,-298 16,-16 33,-30 51,-42 4,0 8,0 13,0l0 0c18,0 36,1 54,2z"/>
  <path class="fil4" d="M19712 1233c-10,117 -113,204 -230,194 -116,-10 -203,-113 -193,-230 10,-117 112,-203 229,-193 117,9 204,112 194,229z"/>
  <path class="fil3" d="M19513 1066c-3,34 -53,58 -111,53 -58,-5 -103,-37 -101,-71 3,-35 53,-58 111,-53 59,5 104,36 101,71z"/>
  <path class="fil3" d="M19548 1429c-3,31 -23,56 -45,54 -23,-2 -39,-29 -36,-61 3,-32 23,-56 45,-54 23,2 39,29 36,61z"/>
  <path class="fil1" d="M19707 2306c0,0 186,-1314 898,-1084l-898 1084z"/>
  <path class="fil2" d="M19707 2306c1,-33 4,-67 8,-100 3,-33 8,-67 14,-100 11,-66 25,-132 43,-197 35,-130 83,-258 150,-377 18,-30 36,-59 56,-87 20,-28 41,-55 64,-81 47,-52 101,-98 163,-131 31,-17 64,-30 98,-40 34,-9 69,-13 104,-14 35,0 69,4 102,11 17,4 33,8 49,14 16,5 32,12 47,18 -16,-2 -33,-6 -49,-7 -17,-3 -33,-4 -49,-5 -33,-1 -66,0 -97,5 -32,4 -63,12 -92,24 -30,11 -58,26 -84,43 -53,34 -99,78 -140,127 -41,49 -77,103 -109,159 -64,113 -115,234 -159,358 -23,62 -43,125 -63,188 -10,32 -19,64 -29,96 -5,16 -9,32 -14,48 -4,16 -9,32 -13,48z"/>
  <path class="fil2" d="M18203 3792c132,-23 260,-59 385,-100 125,-42 248,-91 365,-149 59,-28 117,-59 173,-92 57,-33 112,-67 166,-104 53,-37 106,-76 156,-117 51,-41 99,-84 146,-129 47,-45 92,-92 135,-141 43,-49 84,-99 122,-151 39,-53 76,-107 110,-162 18,-28 33,-56 50,-84l23 -43 12 -22 11 -22 23 -43 21 -45 11 -22 9 -22 20 -45c26,-61 50,-122 72,-184l16 -47 16 -47c10,-32 19,-64 29,-95 5,-16 9,-32 14,-48l13 -49c9,-32 16,-64 25,-96 -1,16 -3,33 -4,49 -2,17 -3,34 -5,50l-7 50c-2,17 -4,34 -7,50 -5,33 -10,66 -17,99l-10 50 -12 49c-7,33 -17,65 -26,97 -4,17 -9,33 -15,49 -5,16 -10,32 -15,48l-17 48 -8 24 -10 23 -18 48 -21 46 -10 24 -11 23 -22 46c-16,30 -31,60 -48,89 -33,60 -70,117 -108,173 -78,112 -167,217 -266,311 -49,47 -100,92 -154,134 -54,42 -109,82 -166,119 -115,74 -236,137 -361,189 -125,52 -254,92 -386,122 -65,15 -132,27 -198,35 -34,4 -67,8 -100,10 -34,3 -67,5 -101,4z"/>
  <path class="fil2" d="M20063 2180c-4,-39 0,-78 5,-117 7,-39 17,-77 31,-114 14,-38 32,-74 54,-108 6,-8 11,-17 18,-25 6,-8 12,-16 19,-24l20 -22c8,-8 15,-15 23,-22l6 -5 6 -5 12 -9c4,-3 8,-7 12,-10l13 -8c9,-6 17,-12 26,-16 10,-5 18,-11 28,-15l28 -12c10,-3 20,-6 30,-9 5,-2 9,-3 14,-5l15 -3c10,-2 20,-4 30,-6 80,-11 161,-2 234,24 -10,1 -19,2 -29,3 -10,0 -19,0 -29,1 -9,1 -19,2 -28,3l-14 1c-5,0 -9,1 -14,2l-28 4c-9,1 -18,3 -27,5 -9,2 -18,3 -26,6 -9,2 -18,5 -27,7 -34,11 -67,23 -98,41 -8,4 -15,9 -23,13 -8,4 -15,10 -22,15l-11 7c-3,3 -7,6 -10,8l-10 9 -5 4 -5 4c-27,23 -50,50 -72,78 -22,29 -41,60 -59,92 -35,65 -63,134 -87,208z"/>
  <path class="fil2" d="M19583 3452c41,-38 82,-72 122,-108 40,-35 79,-70 117,-106 38,-36 74,-74 110,-112 9,-10 17,-20 27,-29 8,-10 17,-21 26,-31l13 -15c5,-5 9,-10 13,-16 9,-10 18,-20 27,-31 -2,14 -5,27 -9,41 -2,7 -4,13 -6,20l-8 20c-5,13 -11,26 -17,38 -7,13 -13,25 -21,37 -29,48 -65,92 -105,130 -41,39 -86,73 -134,100 -12,7 -24,14 -37,20 -12,6 -25,12 -38,17l-19 8c-7,2 -13,5 -20,7 -13,4 -27,8 -41,10z"/>
  <path class="fil1" d="M18892 5048c0,0 65,-362 -144,-488 -281,-168 -452,-340 -163,-556 316,-237 817,25 820,314 0,0 455,61 651,25 210,-38 220,153 210,207 0,0 265,-65 253,172 0,0 206,30 162,207 0,0 -171,803 -1035,886 -864,83 -789,-611 -754,-767z"/>
  <path class="fil2" d="M18869 3941c-90,0 -184,24 -267,86 -96,72 -141,139 -137,205 5,114 162,222 298,303 224,135 160,503 158,518l-1 1c-29,130 -40,395 109,564 122,139 329,196 614,168 349,-34 625,-188 820,-460 146,-204 189,-401 190,-403l0 -1c10,-41 6,-74 -13,-101 -38,-57 -125,-71 -126,-71l-26 -4 2 -26c2,-54 -11,-94 -40,-118 -51,-42 -146,-31 -178,-23l-44 10 9 -44c6,-28 4,-102 -38,-145 -30,-30 -76,-40 -138,-28 -198,36 -641,-23 -659,-25l-25 -4 0 -25c-2,-118 -100,-242 -251,-316 -72,-36 -163,-61 -257,-61zm640 1910c-234,0 -410,-65 -523,-194 -201,-229 -132,-572 -122,-615 3,-16 55,-345 -131,-457 -157,-94 -319,-210 -326,-350 -5,-87 48,-170 161,-255 188,-141 425,-108 584,-30 159,79 267,211 281,342 95,12 454,53 618,23 81,-15 145,0 189,45 46,46 57,111 57,156 49,-6 132,-6 190,42 39,32 59,79 61,140 36,10 102,34 140,90 28,42 35,91 21,147 -3,14 -47,212 -198,422 -141,198 -405,443 -862,487 -49,4 -95,7 -140,7z"/>
  <path class="fil1" d="M19264 4473c0,0 212,-365 398,-628 277,-393 701,-588 780,-311 50,174 -292,622 -292,622 0,0 -311,407 -289,588l-597 -271z"/>
  <path class="fil2" d="M19264 4473c59,-116 122,-230 188,-342 32,-57 66,-112 101,-168 34,-55 69,-109 107,-164 19,-27 39,-53 60,-79 21,-26 44,-50 66,-75 46,-48 95,-93 149,-133 53,-41 111,-77 174,-105 31,-13 64,-25 99,-32 35,-7 72,-10 110,-3 38,6 77,25 105,54 14,15 25,31 34,48 5,9 8,18 12,26 1,5 3,9 4,14l2 6c1,2 2,5 2,7 6,21 6,41 5,60 -1,19 -4,36 -8,54 -8,34 -20,66 -33,97 -26,62 -58,121 -92,177 -17,28 -35,56 -53,83 -18,28 -37,55 -56,81 -20,27 -39,53 -59,79 -10,13 -20,26 -30,38l-29 39c-39,52 -76,104 -111,159 -35,54 -68,109 -97,167 -14,29 -27,58 -37,89 -10,30 -18,62 -16,94 -6,-32 -1,-65 5,-97 8,-32 18,-64 30,-94 23,-62 53,-120 85,-178 32,-57 66,-113 102,-167 9,-14 18,-28 27,-41l29 -40c18,-26 36,-53 54,-80 18,-27 35,-54 52,-81 16,-28 33,-55 49,-83 31,-56 60,-113 83,-171 12,-29 22,-58 28,-87 4,-14 6,-29 6,-42 1,-14 0,-27 -3,-38 0,-1 0,-3 -1,-4l-2 -5c-1,-4 -2,-7 -3,-10 -3,-6 -5,-13 -8,-18 -7,-12 -14,-23 -23,-32 -17,-17 -39,-28 -65,-33 -26,-5 -55,-3 -84,3 -29,5 -57,15 -85,27 -57,24 -111,56 -161,93 -102,75 -192,166 -271,267 -19,25 -38,51 -57,77l-56 79c-37,53 -74,107 -110,161 -74,107 -145,215 -218,323z"/>
  <path class="fil4" d="M18761 422c17,22 32,44 46,66 15,22 29,43 43,63 28,40 55,79 82,112 7,9 13,17 20,24 7,8 14,15 21,22 14,14 26,26 40,36 13,10 25,19 38,24 3,2 6,3 9,5l9 3c3,1 6,3 9,4 3,0 6,2 9,2 12,4 26,6 40,7l11 1c4,-1 8,-1 12,-1 9,0 17,-1 26,-1 17,-2 36,-5 56,-9 20,-5 41,-10 62,-16 43,-13 87,-28 135,-45l18 -6c6,-2 11,-4 18,-6l37 -12c12,-5 25,-8 38,-12 13,-4 26,-8 40,-11l10 10c-37,35 -75,68 -115,100 -40,31 -82,59 -126,84 -11,6 -23,12 -34,18 -12,5 -24,11 -36,15 -23,10 -48,18 -73,24 -51,12 -105,13 -156,0 -26,-7 -50,-18 -73,-31 -22,-14 -43,-31 -61,-49 -37,-38 -66,-81 -88,-127 -23,-46 -40,-94 -53,-143 -13,-50 -23,-99 -28,-150l14 -1z"/>
  <path class="fil4" d="M17339 2219c4,-54 16,-108 31,-161 7,-27 16,-53 26,-79 10,-25 22,-51 34,-75 7,-13 13,-25 20,-37 7,-12 15,-24 23,-35 16,-24 33,-46 52,-67 20,-20 41,-39 64,-57 11,-8 23,-16 35,-23l19 -11 19 -10c51,-24 107,-40 165,-43 57,-3 114,6 167,27 53,21 101,54 139,94 39,41 68,90 83,142 -24,-49 -57,-92 -97,-127 -40,-35 -87,-61 -136,-77 -50,-16 -102,-23 -154,-18 -51,4 -102,19 -148,41l-18 9 -17 10c-11,6 -22,13 -32,21 -21,15 -41,32 -59,51 -37,37 -68,80 -95,126 -27,46 -50,94 -70,145 -20,50 -37,101 -51,154z"/>
  <path class="fil4" d="M18789 1557c-9,-36 -14,-73 -16,-110 -3,-38 -3,-75 0,-112 1,-19 3,-38 6,-56 3,-19 6,-37 10,-56 9,-37 21,-73 37,-107 16,-35 34,-69 58,-99 11,-16 23,-30 37,-44 13,-14 27,-28 41,-40 8,-6 15,-12 23,-18 8,-6 15,-12 23,-17 16,-10 33,-20 50,-29 34,-18 69,-32 105,-43l2 0 0 -1c40,-7 81,-16 123,-20 41,-3 84,-3 125,4 42,8 82,21 119,40 37,18 72,41 104,66 -18,-10 -36,-19 -55,-28 -18,-9 -37,-16 -55,-23 -19,-7 -38,-13 -58,-18 -19,-4 -39,-8 -58,-10 -40,-3 -79,-2 -118,4 -39,6 -79,15 -118,25l2 -1c-34,12 -67,26 -98,43 -31,17 -61,36 -88,59 -54,45 -98,102 -130,166 -7,16 -14,32 -21,49 -7,17 -13,34 -18,51 -5,17 -9,35 -13,52 -4,18 -8,36 -10,54 -11,71 -14,145 -9,219z"/>
 </g>
</svg>
