<?xml version="1.0" encoding="UTF-8"?>
<!DOCTYPE svg PUBLIC "-//W3C//DTD SVG 1.1//EN" "http://www.w3.org/Graphics/SVG/1.1/DTD/svg11.dtd">
<!-- Creator: CorelDRAW X8 -->
<svg xmlns="http://www.w3.org/2000/svg" xml:space="preserve" width="183.606mm" height="180.694mm" version="1.1" style="shape-rendering:geometricPrecision; text-rendering:geometricPrecision; image-rendering:optimizeQuality; fill-rule:evenodd; clip-rule:evenodd"
viewBox="0 0 17188 16916"
 xmlns:xlink="http://www.w3.org/1999/xlink">
 <defs>
  <style type="text/css">
   <![CDATA[
    .fil4 {fill:black}
    .fil1 {fill:#292929}
    .fil0 {fill:#736B6B}
    .fil2 {fill:#CDAD00}
    .fil3 {fill:#FFDD00}
   ]]>
  </style>
 </defs>
 <g id="Layer_x0020_1">
  <metadata id="CorelCorpID_0Corel-Layer"/>
  <g id="_2499233279984">
   <path class="fil0" d="M8503 9444c-33,-165 -16,-4573 -16,-4722 0,-446 -17,-4656 16,-4689 -16,-33 17,-16 -33,-33l-1007 1750c-182,281 -330,578 -512,875 -181,281 -347,578 -512,875 -330,545 -693,1206 -1023,1751 -182,280 -331,577 -512,875 -99,132 -182,280 -264,429 -83,149 -165,297 -248,446l1519 924c248,149 2493,1486 2592,1519z"/>
   <path class="fil1" d="M8503 9444l4045 -2443c0,-17 0,-17 0,-17 -66,-165 -1089,-1866 -1254,-2163 -413,-726 -859,-1453 -1272,-2179l-512 -875c-165,-281 -330,-611 -495,-875 -99,-149 -165,-281 -264,-430 -66,-132 -165,-330 -248,-429 -33,33 -16,4243 -16,4689 0,149 -17,4557 16,4722z"/>
   <path class="fil1" d="M10683 2724c132,248 1040,1784 1189,2015 66,132 115,214 181,346 66,100 132,248 215,331 165,-116 280,-265 462,-413 33,-33 50,-50 83,-66l297 -281c165,-181 462,-429 594,-578 17,-33 50,-49 83,-66 49,-49 99,-99 148,-148 66,-66 83,-83 149,-149l1057 -1007c66,-50 115,-83 165,-132 33,-33 33,-33 66,-66l1601 -1503c34,-33 133,-132 133,-132 -99,-16 -4178,-16 -4376,-16 -132,0 -99,33 -165,99 -99,82 -198,148 -281,247l-1337 1255c-83,83 -182,165 -264,264z"/>
   <path class="fil1" d="M4887 5432c116,-214 264,-462 397,-677l1172 -2047 -479 -462c-49,-34 -83,-67 -132,-100 -33,-49 -66,-82 -116,-132l-743 -693c-49,-33 -82,-66 -132,-99l-247 -231c-50,-66 -66,-116 -165,-116l-4409 0c33,50 66,66 149,132l297 297c33,50 99,99 148,149l463 413c49,49 99,99 148,148l446 430c33,16 66,33 83,66l379 363c298,264 628,578 925,842 215,198 495,495 743,710 33,33 50,50 83,66l379 363c116,116 545,529 611,578z"/>
   <path class="fil1" d="M10980 11129l1073 1007c83,82 132,99 215,198l446 396 4474 0 -941 -908c-50,-50 -99,-83 -149,-132l-1519 -1420c-49,-50 -82,-83 -132,-132l-842 -776c-49,-33 -66,-83 -115,-132l-430 -380c-49,-50 -82,-83 -132,-132 -49,-50 -115,-99 -132,-116 -248,281 -1123,1536 -1370,1883 -66,115 -149,214 -231,313l-215 331z"/>
   <path class="fil1" d="M0 12730l4458 0 1304 -1205c99,-83 380,-347 430,-413l-1123 -1536c-66,-115 -149,-214 -231,-313l-446 -628c-50,33 -99,83 -149,116l-2328 2179c-33,17 -33,50 -66,66 -66,66 -132,100 -198,199l-1618 1486c-33,33 -16,16 -33,49z"/>
   <path class="fil2" d="M8470 10353c-16,280 0,1304 0,1634 17,99 17,1635 33,1618l496 -710c445,-611 990,-1337 1387,-1948 346,-512 792,-1090 1139,-1602 165,-231 924,-1271 1007,-1420 -83,17 -3203,1916 -3550,2114 -165,115 -330,214 -512,314z"/>
   <path class="fil3" d="M8503 13605c-16,17 -16,-1519 -33,-1618 0,-330 -16,-1354 0,-1634 -82,-17 -413,-232 -495,-298l-2510 -1535c-132,-83 -941,-595 -1007,-611l1503 2130c478,677 1007,1453 1502,2146l1007 1437 33 -17z"/>
   <path class="fil4" d="M13572 15190c314,-16 809,-49 925,182 82,165 16,330 -83,413 -148,115 -627,115 -842,99l0 -694zm892 958c578,-215 561,-826 264,-1090 -347,-280 -1007,-181 -1552,-198l0 2047 396 0 0 -693 463 0 478 693 463 0c-17,-82 -446,-660 -512,-759z"/>
   <path class="fil4" d="M726 15190l1206 0 0 -330 -1618 0 0 2047c379,33 1354,-49 1618,0l0 -330 -1206 0 0 -545 1156 0 0 -330 -1156 0 0 -512z"/>
   <path class="fil4" d="M4788 16032l1057 0 0 875 413 0 0 -2047 -413 0 0 842c-182,0 -958,17 -1040,-16 -33,-83 -17,-677 -17,-826l-396 0 0 2047 396 0 0 -875z"/>
   <path class="fil4" d="M11459 15686c-33,-83 -17,-364 -17,-496l1222 0 0 -330 -1618 0 0 2047 1618 0 0 -330 -1222 0 0 -545c116,-16 974,0 1173,0l0 -330c-182,0 -1057,33 -1156,-16z"/>
   <path class="fil4" d="M9362 15190c380,0 941,-82 941,347 0,429 -561,347 -941,347l0 -694zm0 1024c347,0 726,33 1007,-116 215,-132 413,-396 314,-759 -83,-281 -330,-413 -644,-462 -231,-33 -826,-33 -1090,-17l0 2047 413 0 0 -693z"/>
   <path class="fil3" d="M7364 15851l-776 1056 462 0 545 -743c66,50 231,298 281,380 49,50 99,116 148,182 33,49 100,115 133,181l445 0c-33,-99 -710,-941 -759,-1056l726 -991 -462 0c-33,66 -446,644 -512,694l-495 -694 -463 0 727 991z"/>
   <polygon class="fil4" points="15141,15190 15818,15190 15818,16907 16214,16907 16214,15190 16907,15190 16907,14860 15141,14860 "/>
   <path class="fil4" d="M2262 15190l677 0 0 1717 396 0 0 -1717c116,-16 595,-16 694,0l0 -330 -1767 0 0 330z"/>
  </g>
 </g>
</svg>
