<?xml version="1.0" encoding="UTF-8"?>
<!DOCTYPE svg PUBLIC "-//W3C//DTD SVG 1.1//EN" "http://www.w3.org/Graphics/SVG/1.1/DTD/svg11.dtd">
<!-- Creator: CorelDRAW X8 -->
<svg xmlns="http://www.w3.org/2000/svg" xml:space="preserve" width="99.9271mm" height="115.605mm" version="1.1" style="shape-rendering:geometricPrecision; text-rendering:geometricPrecision; image-rendering:optimizeQuality; fill-rule:evenodd; clip-rule:evenodd"
viewBox="0 0 10470 12112"
 xmlns:xlink="http://www.w3.org/1999/xlink">
 <defs>
  <style type="text/css">
   <![CDATA[
    .fil3 {fill:black;fill-rule:nonzero}
    .fil2 {fill:#7C3500;fill-rule:nonzero}
    .fil4 {fill:#994500;fill-rule:nonzero}
    .fil0 {fill:#FABF1B;fill-rule:nonzero}
    .fil1 {fill:white;fill-rule:nonzero}
    .fil5 {fill:white;fill-rule:nonzero}
   ]]>
  </style>
 </defs>
 <g id="Layer_x0020_1">
  <metadata id="CorelCorpID_0Corel-Layer"/>
  <g id="_2164991144560">
   <path class="fil0" d="M10211 3463c895,2678 -607,5594 -3355,6514 -2748,919 -5702,-507 -6597,-3185 -896,-2678 606,-5594 3354,-6513 2749,-919 5702,507 6598,3184z"/>
   <path class="fil1" d="M2634 4907c-67,793 -568,1397 -1117,1350 -550,-46 -942,-726 -875,-1518 67,-792 568,-1397 1118,-1350 550,46 941,726 874,1518z"/>
   <path class="fil2" d="M2630 4907c13,-160 9,-322 -17,-480 -25,-159 -70,-315 -139,-459 -68,-145 -162,-279 -283,-384 -120,-106 -272,-176 -432,-190 -159,-13 -321,31 -457,115 -137,83 -251,200 -343,331 -92,131 -162,277 -213,429 -52,152 -82,311 -96,470 -13,160 -10,321 15,480 25,158 70,314 138,459 69,144 162,279 283,384 120,105 272,176 431,190 160,13 321,-30 457,-114 138,-83 252,-200 344,-331 93,-131 163,-277 215,-429 52,-152 82,-311 97,-471zm8 1c-14,160 -44,320 -95,473 -51,153 -119,302 -210,436 -91,134 -204,257 -344,345 -69,45 -145,81 -226,103 -80,23 -165,33 -250,28 -84,-6 -168,-26 -246,-59 -78,-32 -151,-78 -216,-132 -65,-54 -123,-116 -174,-182 -51,-67 -96,-139 -133,-214 -73,-151 -123,-312 -150,-476 -27,-164 -31,-332 -19,-497 16,-165 48,-329 103,-487 54,-157 130,-308 228,-443 98,-136 222,-255 369,-339 73,-43 152,-76 235,-94 83,-19 169,-25 253,-16 84,9 166,33 241,69 76,35 145,84 206,139 122,111 213,251 280,398 68,148 110,306 134,465 25,160 27,322 14,483z"/>
   <path class="fil1" d="M6028 2640c324,750 86,1574 -532,1842 -618,267 -1382,-124 -1706,-874 -324,-750 -86,-1574 532,-1841 618,-268 1381,123 1706,873z"/>
   <path class="fil2" d="M6024 2642c-71,-162 -164,-314 -279,-448 -116,-134 -252,-250 -406,-337 -153,-88 -323,-146 -499,-164 -175,-17 -354,8 -516,79 -162,70 -303,183 -410,323 -107,140 -181,304 -222,476 -41,171 -50,350 -31,525 19,175 66,347 136,509 70,162 163,314 278,447 115,134 251,250 404,338 153,87 323,146 498,164 175,18 355,-7 516,-77 162,-70 304,-184 411,-323 108,-140 182,-305 223,-476 41,-172 50,-351 32,-526 -19,-176 -65,-348 -135,-510zm7 -3c71,162 118,335 138,512 20,176 14,357 -25,531 -39,174 -109,343 -217,489 -106,146 -250,267 -417,344 -167,76 -355,107 -538,92 -184,-14 -364,-71 -526,-161 -161,-89 -305,-208 -426,-347 -120,-139 -218,-296 -292,-464 -72,-169 -119,-348 -138,-531 -18,-183 -6,-370 39,-549 46,-178 127,-348 243,-492 115,-144 266,-260 436,-329 169,-69 356,-91 535,-69 180,21 351,86 505,177 154,90 290,210 404,345 116,135 209,289 279,452z"/>
   <path class="fil3" d="M522 3319c-19,-50 -30,-98 -38,-146 -8,-49 -11,-97 -13,-146 0,-24 0,-48 1,-72 1,-24 3,-48 6,-72 4,-48 12,-96 23,-143 22,-95 57,-189 106,-280 49,-91 113,-180 200,-258 43,-38 92,-75 146,-105 54,-30 113,-55 176,-71 63,-16 128,-22 191,-20 64,3 124,15 180,34 56,19 108,43 152,74 12,8 23,16 34,24 10,8 21,15 31,24 20,18 40,34 57,53 36,37 67,77 94,120 13,20 25,43 37,65 10,23 20,46 29,71l-19 23c-69,-51 -141,-98 -217,-136 -75,-38 -155,-68 -237,-80 -82,-12 -166,-7 -243,19 -78,26 -149,71 -210,128 -62,55 -115,121 -162,192 -47,70 -87,146 -124,223 -37,77 -68,157 -96,238 -29,81 -54,163 -75,246l-29 -5z"/>
   <path class="fil4" d="M2633 4552c-119,331 -417,554 -744,526 -400,-34 -694,-432 -655,-889 35,-416 335,-738 691,-766 382,128 659,575 708,1129z"/>
   <path class="fil3" d="M1975 3459c-358,0 -669,318 -704,734 -18,211 37,417 156,577 117,159 283,255 466,271 182,15 362,-52 504,-189 109,-104 187,-241 226,-393 8,58 13,118 16,178 -46,102 -110,193 -190,269 -143,138 -320,212 -504,212 -20,0 -39,-1 -59,-2 -205,-18 -389,-125 -519,-301 -130,-176 -190,-399 -171,-629 34,-399 303,-716 637,-787 63,12 124,33 182,61 -13,-1 -27,-1 -40,-1z"/>
   <path class="fil3" d="M2360 4364c-19,218 -210,379 -428,361 -217,-19 -379,-210 -360,-428 18,-217 210,-379 427,-360 218,18 379,209 361,427z"/>
   <path class="fil1" d="M1989 4052c-5,64 -98,108 -206,99 -109,-9 -193,-69 -188,-132 6,-64 98,-108 207,-99 109,9 193,68 187,132z"/>
   <path class="fil1" d="M2054 4728c-5,59 -42,104 -84,101 -42,-4 -71,-54 -66,-114 5,-59 43,-104 84,-100 42,3 71,54 66,113z"/>
   <path class="fil4" d="M5873 2520c-41,479 -414,839 -835,803 -420,-35 -728,-453 -687,-932 26,-312 194,-573 424,-708 411,17 826,266 1098,673 5,54 5,109 0,164z"/>
   <path class="fil3" d="M4845 1688c-69,33 -134,79 -193,136 -151,145 -245,348 -264,570 -19,223 39,439 164,607 123,168 297,269 489,285 400,34 756,-311 795,-769l37 3 -37 -3c6,-76 4,-152 -8,-225 30,41 59,84 86,128 0,34 -1,69 -4,103 -40,476 -399,840 -814,840 -21,0 -41,-1 -61,-2 -214,-19 -407,-130 -543,-315 -136,-184 -199,-417 -179,-658 21,-241 122,-460 287,-618 33,-33 69,-62 106,-87 8,0 17,-1 25,-1l0 0c38,0 76,2 114,6z"/>
   <path class="fil3" d="M5547 2534c-20,242 -233,422 -476,402 -242,-21 -422,-234 -401,-476 20,-243 233,-423 476,-402 242,20 422,234 401,476z"/>
   <path class="fil1" d="M5135 2186c-6,72 -109,121 -231,110 -121,-10 -214,-76 -208,-147 6,-71 109,-120 230,-110 121,11 215,76 209,147z"/>
   <path class="fil1" d="M5207 2940c-5,66 -48,116 -94,112 -46,-4 -79,-61 -74,-127 6,-65 48,-116 94,-112 47,4 80,61 74,127z"/>
   <path class="fil0" d="M5537 4761c0,0 385,-2728 1863,-2249l-1863 2249z"/>
   <path class="fil2" d="M5537 4761c2,-70 8,-139 16,-209 7,-69 17,-138 29,-207 22,-137 52,-274 89,-409 73,-269 172,-535 313,-782 35,-61 73,-122 114,-180 42,-58 86,-115 134,-169 96,-107 209,-203 338,-272 64,-34 133,-62 203,-81 71,-20 143,-29 215,-30 72,0 144,7 213,23 34,9 68,17 101,29 34,10 66,25 98,38 -35,-5 -68,-13 -103,-16 -34,-6 -68,-8 -102,-10 -68,-3 -135,0 -201,10 -66,9 -130,26 -191,49 -61,24 -119,54 -173,90 -110,71 -206,162 -291,264 -84,101 -159,213 -225,330 -133,233 -239,485 -331,743 -47,128 -89,259 -130,390 -21,66 -40,132 -60,199 -10,33 -19,66 -28,99 -10,34 -19,67 -28,101z"/>
   <path class="fil2" d="M2418 7842c273,-49 539,-121 798,-207 260,-87 514,-189 758,-309 122,-59 242,-123 359,-191 117,-68 232,-140 343,-217 111,-77 220,-157 324,-242 105,-84 206,-174 303,-268 97,-93 191,-190 279,-291 89,-102 175,-206 254,-315 80,-108 156,-220 227,-335 37,-57 69,-117 104,-175l49 -89 25 -44 23 -46 46 -90 44 -92 22 -47 20 -46 42 -94c52,-125 104,-252 148,-382l35 -97 31 -97c22,-65 40,-132 61,-198 10,-32 19,-66 28,-99l27 -100c19,-67 34,-134 52,-201 -2,35 -5,69 -8,104 -4,34 -6,69 -10,103l-14 104c-4,34 -8,69 -14,103 -11,69 -22,137 -37,206l-21 102 -24 102c-15,68 -35,135 -53,203 -9,34 -20,67 -31,100 -11,33 -21,67 -32,100l-35 99 -18 50 -19 49 -39 98 -42 97 -21 48 -23 48 -45 95c-33,62 -64,125 -100,186 -68,124 -144,243 -225,359 -161,232 -346,449 -550,645 -103,97 -209,191 -320,278 -112,87 -227,170 -345,246 -238,154 -488,284 -748,392 -259,107 -528,192 -800,254 -137,30 -274,55 -412,72 -69,9 -138,16 -208,22 -69,4 -138,8 -208,7z"/>
   <path class="fil2" d="M6276 4499c-8,-81 -2,-163 10,-243 13,-81 34,-160 63,-238 29,-77 67,-152 113,-223 12,-17 23,-35 36,-52 13,-16 26,-33 40,-49l43 -47c15,-15 31,-30 46,-44l12 -11 13 -10 25 -20c9,-6 17,-13 26,-19l26 -18c18,-12 36,-24 55,-34 19,-9 38,-21 57,-29l59 -25c20,-8 41,-13 61,-20 10,-3 20,-6 30,-9l31 -7c21,-4 42,-9 62,-12 167,-23 334,-5 486,50 -21,2 -41,3 -61,5 -20,1 -39,1 -59,3 -20,2 -39,4 -59,5l-29 3c-10,1 -19,3 -29,4l-57 8c-19,2 -38,7 -57,11 -18,4 -37,6 -55,12 -18,5 -36,10 -55,15 -71,22 -140,48 -204,84 -16,9 -31,19 -47,28 -16,9 -31,20 -45,30l-23 16c-7,5 -14,11 -21,17l-21 17 -11 8 -10 10c-55,47 -104,103 -149,162 -45,59 -85,123 -122,190 -73,134 -131,279 -180,432z"/>
   <path class="fil2" d="M5280 7137c86,-78 170,-150 253,-224 83,-72 163,-146 242,-221 79,-74 154,-152 228,-232 18,-20 37,-40 56,-60 18,-21 35,-42 54,-63l28 -32c9,-10 17,-21 26,-32 18,-22 37,-44 57,-65 -5,28 -12,56 -20,84 -3,15 -8,28 -12,43l-16 40c-11,27 -23,54 -35,80 -14,25 -29,51 -43,76 -61,99 -135,191 -220,270 -84,80 -177,150 -277,208 -25,14 -50,28 -76,41 -26,12 -52,25 -79,36l-40 16c-14,4 -28,9 -41,14 -28,9 -56,16 -85,21z"/>
   <path class="fil0" d="M3847 10447c0,0 135,-751 -300,-1012 -581,-348 -936,-704 -337,-1154 654,-491 1694,52 1701,652 0,0 943,127 1350,53 434,-80 457,317 434,429 0,0 550,-135 525,355 0,0 427,63 337,430 0,0 -355,1665 -2146,1838 -1791,172 -1638,-1267 -1564,-1591z"/>
   <path class="fil5" d="M3800 8151c-189,0 -383,49 -554,178 -199,149 -293,289 -286,425 12,237 337,461 618,630 465,279 334,1042 328,1074l0 3c-62,269 -83,818 225,1169 253,288 682,405 1274,348 723,-69 1295,-391 1699,-955 303,-423 394,-832 395,-836l0 -1c20,-84 12,-153 -26,-210 -79,-118 -260,-146 -262,-147l-54 -8 3 -54c6,-112 -22,-195 -82,-244 -107,-89 -302,-66 -368,-49l-92 22 19 -92c11,-58 7,-212 -79,-300 -62,-63 -159,-83 -287,-59 -411,75 -1329,-47 -1368,-52l-51 -7 0 -52c-4,-245 -207,-503 -519,-656 -151,-75 -339,-127 -533,-127zm1327 3961c-486,0 -851,-135 -1086,-402 -417,-474 -272,-1187 -253,-1274 6,-33 115,-717 -271,-949 -326,-196 -662,-435 -677,-727 -9,-179 100,-352 334,-527 391,-294 882,-225 1212,-63 331,163 554,437 582,710 198,24 941,109 1282,47 169,-32 301,0 393,93 95,96 118,231 118,324 100,-12 273,-13 393,86 81,67 123,165 127,292 75,20 213,70 291,187 57,85 72,188 44,304 -6,28 -99,439 -411,876 -293,410 -841,917 -1788,1009 -101,9 -198,14 -290,14z"/>
   <path class="fil0" d="M4619 9255c0,0 439,-758 825,-1304 574,-814 1454,-1218 1618,-645 103,361 -607,1291 -607,1291 0,0 -644,844 -599,1221l-1237 -563z"/>
   <path class="fil5" d="M4619 9255c122,-241 253,-476 388,-710 68,-117 138,-233 210,-348 71,-115 144,-227 223,-340 40,-56 81,-111 125,-164 43,-53 89,-105 136,-155 95,-100 198,-193 308,-278 111,-84 230,-159 361,-216 65,-29 134,-52 206,-67 73,-14 150,-20 229,-6 79,13 159,52 217,113 29,30 52,64 71,99 9,18 17,36 24,54 3,9 7,18 9,27l5 14c1,5 2,9 4,15 11,43 12,84 9,123 -2,39 -8,76 -17,112 -17,71 -40,138 -68,203 -55,128 -120,249 -191,366 -36,59 -72,117 -110,173 -38,57 -77,113 -116,168 -40,55 -81,110 -122,163 -22,28 -42,53 -62,80l-61 80c-80,107 -157,217 -229,329 -74,112 -142,227 -201,347 -30,59 -57,121 -77,184 -21,63 -37,129 -34,197 -12,-67 -2,-137 12,-203 15,-67 36,-132 60,-195 49,-127 111,-249 176,-368 67,-119 138,-234 213,-348 18,-28 37,-57 57,-84l58 -83c39,-55 76,-110 113,-166 37,-56 72,-112 107,-169 35,-57 69,-114 101,-172 65,-115 127,-233 174,-353 24,-60 45,-121 58,-181 7,-30 11,-60 13,-88 1,-29 -1,-55 -7,-78 0,-2 -1,-6 -2,-9l-4 -11c-2,-7 -5,-13 -7,-20 -5,-13 -11,-26 -17,-38 -13,-24 -28,-46 -46,-64 -36,-37 -83,-60 -137,-70 -54,-10 -113,-6 -173,5 -59,12 -119,32 -177,57 -117,49 -229,117 -334,194 -211,154 -398,344 -560,552 -41,52 -80,107 -119,161l-117 164c-77,110 -153,221 -229,333 -152,222 -300,447 -450,671z"/>
   <path class="fil3" d="M3576 851c34,47 65,93 95,138 31,44 60,88 89,130 57,84 113,164 169,233 14,17 29,34 43,50 14,16 28,31 42,45 29,28 55,55 83,75 28,20 53,38 79,50 7,3 13,6 19,9l19 8c6,2 12,4 18,6 7,2 13,4 19,6 26,7 53,11 83,14l24 1c8,0 16,0 25,0 16,-1 34,-2 52,-4 37,-3 76,-10 117,-19 41,-9 84,-20 128,-33 89,-25 182,-58 280,-92l37 -12c12,-4 24,-9 37,-13l77 -26c26,-9 53,-16 79,-25 27,-8 55,-16 84,-23l20 23c-76,71 -155,141 -237,206 -83,64 -171,123 -263,175 -23,13 -47,25 -71,37 -24,11 -48,22 -73,32 -49,20 -100,36 -153,48 -104,25 -217,29 -323,0 -53,-14 -104,-36 -151,-64 -46,-29 -89,-64 -127,-102 -76,-77 -136,-167 -182,-263 -47,-95 -82,-195 -110,-297 -27,-102 -47,-205 -58,-310l30 -3z"/>
   <path class="fil3" d="M626 4579c9,-113 33,-225 64,-334 16,-55 34,-109 54,-163 21,-53 45,-106 71,-157 13,-26 27,-51 42,-76 15,-25 30,-49 47,-73 32,-48 69,-94 108,-138 40,-43 84,-82 132,-118 23,-18 48,-34 74,-49l38 -23 39 -20c107,-51 223,-84 342,-89 118,-6 238,12 347,56 110,43 209,111 289,195 80,85 140,186 173,295 -51,-102 -120,-192 -203,-263 -83,-73 -180,-127 -282,-161 -103,-33 -212,-47 -318,-38 -107,9 -212,39 -308,86l-37 18 -35 20c-23,14 -45,28 -67,44 -44,31 -84,68 -122,106 -77,77 -140,167 -197,262 -56,95 -104,196 -146,300 -41,104 -76,211 -105,320z"/>
   <path class="fil3" d="M3634 3205c-19,-75 -29,-151 -35,-228 -5,-77 -6,-155 0,-232 3,-39 7,-78 12,-116 7,-39 14,-77 23,-115 18,-77 43,-152 75,-224 33,-71 72,-141 120,-205 24,-32 50,-62 77,-91 27,-29 56,-57 87,-83 15,-13 30,-25 46,-37 16,-12 32,-24 49,-34 33,-23 67,-43 102,-61 71,-37 144,-67 220,-89l2 -1 1 0c83,-17 167,-35 254,-43 87,-7 175,-7 261,9 86,15 169,43 246,82 77,37 149,85 215,137 -37,-20 -75,-40 -113,-58 -38,-18 -76,-34 -115,-49 -39,-14 -79,-26 -119,-35 -41,-10 -81,-17 -122,-21 -81,-7 -163,-4 -244,8 -82,12 -163,31 -245,51l4 -1c-70,24 -138,53 -203,88 -65,35 -126,76 -182,123 -113,93 -203,212 -269,344 -16,33 -31,67 -44,102 -14,34 -26,70 -37,105 -11,36 -20,72 -28,109 -8,37 -15,73 -21,111 -22,149 -29,301 -17,454z"/>
  </g>
 </g>
</svg>
