<?xml version="1.0" encoding="UTF-8"?>
<!DOCTYPE svg PUBLIC "-//W3C//DTD SVG 1.1//EN" "http://www.w3.org/Graphics/SVG/1.1/DTD/svg11.dtd">
<!-- Creator: CorelDRAW X8 -->
<svg xmlns="http://www.w3.org/2000/svg" xml:space="preserve" width="221.22mm" height="47.5871mm" version="1.1" style="shape-rendering:geometricPrecision; text-rendering:geometricPrecision; image-rendering:optimizeQuality; fill-rule:evenodd; clip-rule:evenodd"
viewBox="0 0 22739 4891"
 xmlns:xlink="http://www.w3.org/1999/xlink">
 <defs>
  <style type="text/css">
   <![CDATA[
    .fil4 {fill:black}
    .fil1 {fill:#292929}
    .fil0 {fill:#736B6B}
    .fil2 {fill:#CDAD00}
    .fil3 {fill:#FFDD00}
   ]]>
  </style>
 </defs>
 <g id="Layer_x0020_1">
  <metadata id="CorelCorpID_0Corel-Layer"/>
  <g id="_2947044620512">
   <path class="fil0" d="M3053 3391c-12,-59 -5,-1642 -5,-1695 0,-161 -7,-1672 5,-1684 -5,-12 6,-6 -12,-12l-361 628c-66,101 -119,208 -184,315 -65,101 -125,207 -184,314 -118,196 -249,433 -367,629 -66,100 -119,207 -184,314 -36,47 -65,100 -95,154 -30,53 -59,106 -89,160l546 332c89,53 895,533 930,545z"/>
   <path class="fil1" d="M3053 3391l1453 -877c0,-6 0,-6 0,-6 -24,-59 -391,-670 -450,-777 -149,-261 -309,-522 -457,-782l-184 -314c-59,-101 -119,-220 -178,-315 -35,-53 -59,-101 -95,-154 -23,-48 -59,-119 -89,-154 -12,12 -5,1523 -5,1684 0,53 -7,1636 5,1695z"/>
   <path class="fil1" d="M3836 978c48,89 374,641 427,724 24,47 41,77 65,124 24,36 47,89 77,119 60,-42 101,-95 166,-148 12,-12 18,-18 30,-24l107 -101c59,-65 166,-154 213,-208 6,-11 18,-17 30,-23 17,-18 35,-36 53,-53 24,-24 30,-30 53,-54l380 -362c24,-18 41,-29 59,-47 12,-12 12,-12 24,-24l575 -539c12,-12 48,-48 48,-48 -36,-6 -1501,-6 -1572,-6 -47,0 -35,12 -59,36 -36,29 -71,53 -101,89l-480 450c-30,30 -65,60 -95,95z"/>
   <path class="fil1" d="M1755 1951c42,-77 95,-166 142,-244l421 -735 -172 -165c-17,-13 -30,-25 -47,-36 -12,-18 -24,-30 -42,-48l-267 -249c-17,-11 -29,-23 -47,-35l-89 -83c-18,-24 -23,-42 -59,-42l-1583 0c12,18 24,24 53,48l107 106c12,18 36,36 53,54l166 148c18,18 36,36 54,53l160 155c12,5 23,11 30,23l136 131c107,94 225,207 332,302 77,71 177,178 267,255 11,12 18,18 29,24l136 130c42,42 196,190 220,208z"/>
   <path class="fil1" d="M3943 3996l385 362c30,29 47,35 77,71l160 142 1607 0 -338 -326c-18,-18 -35,-30 -53,-47l-546 -510c-17,-18 -29,-30 -47,-48l-303 -278c-17,-12 -23,-30 -41,-48l-154 -136c-18,-18 -30,-30 -48,-47 -17,-18 -41,-36 -47,-42 -89,101 -403,551 -492,676 -24,41 -54,77 -83,112l-77 119 0 0z"/>
   <path class="fil1" d="M0 4571l1601 0 468 -433c36,-29 136,-124 154,-148l-403 -551c-23,-42 -53,-77 -83,-113l-160 -225c-18,12 -35,30 -53,41l-836 783c-12,6 -12,18 -24,24 -24,23 -47,35 -71,71l-581 534c-12,11 -6,5 -12,17z"/>
   <path class="fil2" d="M3041 3718c-5,100 0,468 0,586 7,36 7,587 12,581l178 -255c160,-219 356,-480 498,-699 125,-184 285,-391 409,-575 60,-83 332,-457 362,-510 -30,6 -1150,688 -1275,759 -59,41 -118,77 -184,113z"/>
   <path class="fil3" d="M3053 4885c-5,6 -5,-545 -12,-581 0,-118 -5,-486 0,-586 -29,-6 -148,-84 -177,-107l-902 -552c-47,-29 -337,-213 -361,-219l540 765c171,243 361,522 539,770l361 516 12 -6z"/>
  </g>
  <g id="_2947044607296">
   <path class="fil4" d="M19376 1899c317,-16 816,-50 933,183 82,167 16,333 -84,417 -149,116 -632,116 -849,100l0 -700zm899 966c583,-217 566,-833 267,-1099 -350,-283 -1016,-183 -1566,-200l0 2064 400 0 0 -698 467 0 482 698 467 0c-17,-82 -450,-665 -517,-765z"/>
   <path class="fil4" d="M6421 1899l1216 0 0 -333 -1632 0 0 2064c382,34 1366,-49 1632,0l0 -332 -1216 0 0 -550 1165 0 0 -333 -1165 0 0 -516z"/>
   <path class="fil4" d="M10517 2748l1066 0 0 882 417 0 0 -2064 -417 0 0 849c-183,0 -966,17 -1049,-16 -33,-84 -17,-683 -17,-833l-399 0 0 2064 399 0 0 -882z"/>
   <path class="fil4" d="M17245 2399c-33,-84 -17,-367 -17,-500l1232 0 0 -333 -1632 0 0 2064 1632 0 0 -332 -1232 0 0 -550c117,-16 982,0 1183,0l0 -333c-184,0 -1066,34 -1166,-16z"/>
   <path class="fil4" d="M15130 1899c383,0 949,-83 949,350 0,432 -566,350 -949,350l0 -700zm0 1033c350,0 732,33 1016,-117 216,-134 416,-400 316,-766 -83,-283 -333,-416 -649,-466 -233,-33 -833,-33 -1099,-17l0 2064 416 0 0 -698z"/>
   <path class="fil3" d="M13115 2566l-783 1064 466 0 550 -749c67,51 233,301 283,383 50,51 100,117 150,184 33,49 101,116 134,182l449 0c-34,-99 -716,-949 -766,-1064l732 -1000 -466 0c-33,67 -449,650 -516,700l-499 -700 -467 0 733 1000z"/>
   <polygon class="fil4" points="20958,1899 21641,1899 21641,3630 22040,3630 22040,1899 22739,1899 22739,1566 20958,1566 "/>
   <path class="fil4" d="M7970 1899l682 0 0 1731 400 0 0 -1731c117,-16 600,-16 700,0l0 -333 -1782 0 0 333z"/>
  </g>
 </g>
</svg>
