<?xml version="1.0" encoding="UTF-8"?>
<!DOCTYPE svg PUBLIC "-//W3C//DTD SVG 1.1//EN" "http://www.w3.org/Graphics/SVG/1.1/DTD/svg11.dtd">
<!-- Creator: CorelDRAW X8 -->
<svg xmlns="http://www.w3.org/2000/svg" xml:space="preserve" width="54.4492mm" height="62.6084mm" version="1.1" style="shape-rendering:geometricPrecision; text-rendering:geometricPrecision; image-rendering:optimizeQuality; fill-rule:evenodd; clip-rule:evenodd"
viewBox="0 0 1134 1304"
 xmlns:xlink="http://www.w3.org/1999/xlink">
 <defs>
  <style type="text/css">
   <![CDATA[
    .str1 {stroke:white;stroke-width:7.04998}
    .str0 {stroke:white;stroke-width:7.04998}
    .fil0 {fill:white;fill-rule:nonzero}
   ]]>
  </style>
 </defs>
 <g id="Layer_x0020_1">
  <metadata id="CorelCorpID_0Corel-Layer"/>
  <g id="_2164941304800">
   <path class="fil0 str0" d="M505 995c13,-26 27,-51 41,-76 8,-13 15,-25 23,-37 7,-13 15,-25 24,-37 4,-6 8,-11 13,-17 5,-6 9,-11 14,-17 11,-10 22,-20 33,-29 12,-9 25,-17 39,-23 7,-3 14,-6 22,-8 8,-1 16,-2 24,0 9,1 17,5 24,12 3,3 5,7 7,10 1,2 2,4 3,6 0,1 0,2 1,3l0 2c0,0 0,1 1,1 1,5 1,9 1,13 -1,5 -1,8 -2,12 -2,8 -5,15 -7,22 -6,14 -13,27 -21,39 -4,6 -8,13 -12,19 -4,6 -8,12 -12,18 -4,5 -9,11 -13,17 -2,3 -5,6 -7,8l-6 9c-9,11 -17,23 -25,35 -8,12 -15,24 -21,37 -3,7 -6,13 -8,20 -3,7 -4,14 -4,21 -1,-7 0,-15 1,-22 2,-7 4,-14 7,-21 5,-13 12,-26 19,-39 7,-13 14,-25 22,-37 2,-3 4,-6 6,-9l7 -9c4,-6 8,-12 12,-18 4,-6 7,-12 11,-18 4,-6 7,-12 11,-18 7,-12 13,-25 18,-38 3,-6 5,-13 7,-19 0,-3 1,-7 1,-10 0,-3 0,-5 -1,-8 0,0 0,0 0,-1l0 -1c-1,-1 -1,-1 -1,-2 -1,-2 -1,-3 -2,-4 -1,-3 -3,-5 -5,-7 -4,-4 -9,-6 -14,-7 -6,-2 -13,-1 -19,0 -6,1 -13,3 -19,6 -12,5 -24,13 -36,21 -22,16 -42,37 -59,59 -5,5 -9,11 -13,17l-13 18c-8,11 -16,23 -24,35 -16,24 -32,48 -48,72z"/>
   <path class="fil0 str0" d="M529 955c0,-26 -21,-48 -55,-65 -16,-8 -36,-13 -57,-13 -20,0 -41,5 -59,19 -21,16 -31,31 -30,45 1,26 36,50 66,68 49,29 35,111 35,114l0 1c-7,28 -9,87 24,125 27,30 73,43 136,37 77,-8 138,-42 181,-102 33,-45 42,-89 43,-90l0 0c2,-9 1,-16 -3,-22 -9,-13 -28,-16 -28,-16l-6 -1 0 -5c1,-13 -2,-21 -8,-27 -12,-9 -33,-7 -40,-5l-10 3 2 -10c2,-6 2,-23 -8,-32 -10,-10 -28,-7 -42,-5l9 -14c18,-4 32,0 42,10 10,10 13,24 13,34 10,-1 29,-1 42,10 8,7 13,17 13,31 8,2 23,7 31,20 6,9 8,20 5,32 -1,3 -11,47 -44,94 -31,44 -90,98 -191,107 -11,2 -21,2 -31,2 -52,0 -91,-14 -116,-43 -44,-51 -29,-127 -27,-136 1,-4 12,-77 -29,-101 -35,-21 -71,-47 -72,-78 -1,-19 10,-38 35,-56 42,-32 95,-24 130,-7 35,17 51,37 59,61l-10 15z"/>
   <path class="fil0 str0" d="M790 1050c51,-22 98,-50 141,-86 55,-46 102,-103 135,-167 34,-64 56,-134 62,-207 3,-36 2,-72 -2,-108 -4,-36 -12,-72 -24,-106 -11,-34 -26,-67 -44,-99 -19,-31 -40,-60 -64,-87 -49,-54 -108,-98 -174,-129 -65,-30 -137,-48 -209,-51 -72,-4 -144,6 -212,30 -34,11 -67,26 -98,44 -32,18 -61,39 -88,62 -28,23 -53,49 -75,77 -22,28 -42,59 -58,90 -16,32 -30,65 -40,100 -10,34 -16,69 -19,105 -3,36 -2,71 2,107 4,35 12,70 24,104 11,34 26,67 43,98 18,31 39,60 63,86 47,54 106,97 170,128 33,16 66,28 101,37l0 13c-36,-9 -72,-21 -107,-37 -66,-32 -126,-76 -175,-130 -25,-28 -47,-58 -65,-89 -19,-32 -34,-66 -46,-101 -23,-70 -32,-144 -25,-217 6,-74 27,-145 62,-210 34,-65 81,-123 137,-170 57,-47 122,-82 191,-105 35,-11 71,-19 107,-24 36,-4 72,-6 109,-3 36,2 72,8 107,17 35,9 70,22 102,37 33,16 64,35 93,57 29,21 56,46 80,73 24,27 46,57 64,88 18,31 33,65 44,99 12,34 20,70 24,106 5,36 5,72 2,108 -3,37 -9,72 -19,107 -10,35 -24,69 -41,101 -16,32 -36,63 -59,91 -22,29 -48,55 -75,79 -28,24 -58,45 -89,63 -16,9 -32,17 -48,24l-7 -5z"/>
   <path class="fil0 str0" d="M292 530c2,-17 1,-34 -1,-51 -3,-17 -8,-34 -15,-49 -8,-16 -18,-30 -31,-41 -12,-11 -29,-19 -46,-20 -17,-2 -34,3 -49,12 -14,9 -26,21 -36,35 -10,14 -18,30 -23,46 -6,16 -9,33 -10,50 -2,17 -1,35 1,52 3,17 8,33 15,49 7,15 17,29 30,41 13,11 29,18 46,20 17,1 35,-3 49,-12 15,-9 27,-22 37,-36 10,-14 17,-29 23,-45 5,-17 9,-34 10,-51zm1 0c-1,18 -5,35 -10,51 -5,16 -13,32 -22,47 -10,14 -22,27 -37,36 -8,5 -16,9 -24,11 -9,3 -18,4 -27,3 -9,0 -18,-2 -26,-6 -9,-3 -16,-8 -23,-14 -7,-6 -14,-12 -19,-20 -6,-7 -10,-14 -14,-22 -8,-16 -13,-34 -16,-51 -3,-18 -4,-36 -2,-53 1,-18 5,-35 11,-52 5,-17 14,-33 24,-48 11,-14 24,-27 39,-36 8,-4 17,-8 26,-10 8,-2 18,-3 27,-2 9,1 17,4 25,8 8,4 16,9 22,15 13,11 23,26 30,42 8,16 12,33 15,50 2,17 3,34 1,51z"/>
   <path class="fil0 str0" d="M67 361c-2,-6 -3,-11 -4,-16 -1,-5 -1,-10 -1,-16 0,-2 0,-5 0,-7 0,-3 0,-5 0,-8 1,-5 2,-10 3,-15 2,-10 6,-20 11,-30 5,-10 12,-19 21,-28 5,-4 10,-8 16,-11 6,-3 12,-6 19,-7 7,-2 14,-3 20,-3 7,1 14,2 20,4 6,2 11,5 16,8 1,1 2,2 3,2 2,1 3,2 4,3 2,2 4,4 6,6 4,4 7,8 10,12 1,3 3,5 4,7 1,3 2,5 3,8l-2 3c-8,-6 -15,-11 -23,-15 -8,-4 -17,-7 -26,-9 -8,-1 -17,0 -26,2 -8,3 -15,8 -22,14 -7,6 -12,13 -17,21 -5,7 -10,15 -14,23 -3,9 -7,17 -10,26 -3,9 -6,17 -8,26l-3 0z"/>
   <path class="fil0 str1" d="M222 376c-38,0 -71,34 -75,78 -2,23 4,45 17,62 12,17 30,27 49,29 20,1 39,-6 54,-21 12,-11 20,-25 25,-42 0,7 1,13 1,19 -5,11 -12,21 -20,29 -15,15 -34,23 -54,23 -2,0 -4,0 -6,0 -22,-2 -42,-14 -56,-33 -14,-18 -20,-42 -18,-67 4,-42 32,-76 68,-84 7,1 13,4 20,7 -2,0 -3,0 -5,0z"/>
   <path class="fil0 str1" d="M263 472c-2,24 -22,41 -45,39 -24,-2 -41,-23 -39,-46 2,-23 23,-40 46,-38 23,2 40,22 38,45z"/>
   <path class="fil0 str1" d="M529 186c-7,4 -14,9 -21,15 -16,15 -26,37 -28,61 -2,24 4,47 18,65 13,18 31,28 52,30 43,4 81,-33 85,-82l4 0 -4 0c1,-8 0,-16 -1,-24 3,4 6,9 9,14 0,3 0,7 0,11 -5,50 -43,89 -87,89 -2,0 -5,0 -7,0 -23,-2 -43,-14 -58,-34 -14,-19 -21,-44 -19,-70 2,-26 13,-49 31,-66 3,-3 7,-6 11,-9 1,0 2,0 3,0l0 0c4,0 8,0 12,0z"/>
   <path class="fil0 str1" d="M604 277c-2,26 -25,45 -51,43 -26,-3 -45,-25 -43,-51 2,-26 25,-45 51,-43 26,2 45,25 43,51z"/>
   <path class="fil0 str0" d="M610 478c-4,3 -8,5 -12,6 -17,8 -36,10 -55,9 -19,-2 -37,-9 -53,-18 -17,-9 -31,-22 -43,-36 -13,-14 -23,-31 -30,-48 -7,-17 -12,-35 -15,-54 -2,-19 -1,-38 4,-56 4,-19 12,-36 23,-51 12,-15 27,-27 44,-35 18,-7 37,-10 55,-8 19,2 37,8 54,17 16,10 31,22 43,36 12,15 22,31 30,48 6,14 10,28 13,43 0,-1 0,-1 0,-1 -2,-15 -7,-29 -12,-42 -8,-17 -18,-34 -30,-48 -12,-15 -27,-27 -43,-37 -17,-10 -35,-17 -54,-19 -19,-2 -39,0 -57,7 -19,8 -35,20 -47,35 -12,16 -21,34 -26,53 -5,19 -6,39 -4,59 2,19 7,38 15,56 7,18 18,35 31,50 13,15 28,28 45,37 18,10 37,16 56,17 20,2 40,-1 58,-10 3,-1 6,-3 9,-4 0,-2 0,-4 1,-6z"/>
   <path class="fil0 str0" d="M603 515c0,-8 1,-15 2,-23 0,-7 1,-14 3,-22 2,-14 5,-29 9,-43 8,-29 19,-58 34,-84 3,-7 7,-13 12,-19 4,-6 9,-13 14,-18 10,-12 23,-22 36,-29 7,-4 14,-7 22,-9 8,-2 15,-3 23,-3 8,0 15,1 23,2 3,1 7,2 11,3 3,1 7,3 10,4 -4,0 -7,-1 -11,-1 -4,-1 -7,-1 -11,-1 -7,-1 -14,0 -21,1 -7,1 -14,2 -21,5 -6,3 -12,6 -18,10 -12,7 -22,17 -31,28 -9,11 -17,23 -24,35 -15,25 -26,52 -36,79 -5,14 -9,28 -14,42 -2,7 -4,14 -6,21 -1,4 -2,7 -3,11 -1,3 -2,7 -3,11z"/>
   <path class="fil0 str0" d="M270 844c29,-5 57,-13 85,-22 28,-10 55,-21 81,-33 13,-7 26,-13 38,-21 13,-7 25,-15 37,-23 12,-8 23,-17 35,-26 11,-9 22,-18 32,-28 10,-10 20,-21 30,-31 9,-11 18,-22 27,-34 8,-12 17,-24 24,-36 4,-6 8,-12 11,-19l5 -9 3 -5 3 -5 5 -9 4 -10 3 -5 2 -5 4 -10c6,-14 11,-27 16,-41l4 -10 3 -11c2,-7 4,-14 7,-21 1,-3 2,-7 3,-10l2 -11c2,-7 4,-14 6,-22 0,4 -1,8 -1,12 0,3 -1,7 -1,11l-1 11c-1,3 -1,7 -2,11 -1,7 -2,14 -4,22l-2 11 -3 10c-1,8 -3,15 -5,22 -1,4 -3,7 -4,11 -1,3 -2,7 -3,11l-4 10 -2 5 -2 6 -4 10 -4 10 -3 6 -2 5 -5 10c-3,7 -7,13 -11,20 -7,13 -15,26 -24,38 -17,25 -37,48 -58,69 -11,10 -23,20 -35,30 -12,9 -24,18 -37,26 -25,16 -52,30 -79,42 -28,11 -57,20 -86,27 -14,3 -29,6 -44,8 -7,1 -15,1 -22,2 -8,1 -15,1 -22,1z"/>
   <path class="fil0 str0" d="M682 487c-1,-9 0,-18 1,-26 1,-9 4,-17 7,-26 3,-8 7,-16 12,-23 1,-2 2,-4 4,-6 1,-2 2,-4 4,-5l4 -5c2,-2 4,-3 5,-5l2 -1 1 -1 3 -2c1,-1 2,-2 2,-2l3 -2c2,-2 4,-3 6,-4 2,-1 4,-2 6,-3l7 -3c2,-1 4,-1 6,-2 1,0 2,-1 3,-1l4 -1c2,0 4,-1 6,-1 18,-2 36,0 52,5 -2,1 -4,1 -6,1 -2,0 -5,0 -7,0 -2,1 -4,1 -6,1l-3 0c-1,0 -2,0 -3,1l-6 0c-2,1 -4,1 -6,2 -2,0 -4,0 -6,1 -2,0 -4,1 -6,1 -8,3 -15,6 -22,9 -2,1 -3,2 -5,3 -2,1 -3,3 -5,4l-2 1c-1,1 -2,2 -2,2l-3 2 -1 1 -1 1c-6,5 -11,11 -16,17 -5,7 -9,13 -13,21 -8,14 -14,29 -19,46z"/>
   <path class="fil0 str0" d="M575 769c10,-9 19,-17 27,-24 9,-8 18,-16 26,-24 9,-8 17,-16 25,-25 2,-2 4,-4 6,-6 2,-2 3,-5 5,-7l3 -3c1,-1 2,-3 3,-4 2,-2 4,-4 6,-7 0,3 -1,6 -2,9 0,2 -1,3 -1,5l-2 4c-1,3 -2,6 -4,9 -1,2 -3,5 -4,8 -7,10 -15,20 -24,29 -9,8 -19,16 -29,22 -3,1 -6,3 -8,4 -3,2 -6,3 -9,4l-4 2c-2,0 -3,1 -5,1 -2,1 -5,2 -9,3z"/>
   <path class="fil0 str0" d="M393 97c4,5 7,10 11,15 3,4 6,9 9,14 6,9 12,17 18,24 2,2 3,4 5,6 1,1 3,3 4,5 3,3 6,5 9,8 3,2 6,4 9,5 0,0 1,1 2,1l2 1c0,0 1,0 2,1 0,0 1,0 2,0 2,1 5,1 8,2l3 0c1,0 2,0 3,0 1,0 3,-1 5,-1 4,0 8,-1 13,-2 4,-1 9,-2 13,-3 10,-3 20,-6 30,-10l4 -1c2,-1 3,-1 4,-2l8 -3c3,0 6,-1 9,-2 3,-1 6,-2 9,-3l2 3c-8,7 -17,15 -25,22 -9,7 -19,13 -28,18 -3,2 -5,3 -8,4 -3,2 -5,3 -8,4 -5,2 -11,4 -16,5 -11,3 -23,3 -35,0 -5,-2 -11,-4 -16,-7 -5,-3 -9,-7 -13,-11 -9,-8 -15,-18 -20,-28 -5,-10 -9,-21 -12,-32 -3,-10 -5,-21 -6,-33l3 0z"/>
  </g>
 </g>
</svg>
