<?xml version="1.0" encoding="UTF-8"?>
<!DOCTYPE svg PUBLIC "-//W3C//DTD SVG 1.1//EN" "http://www.w3.org/Graphics/SVG/1.1/DTD/svg11.dtd">
<!-- Creator: CorelDRAW X8 -->
<svg xmlns="http://www.w3.org/2000/svg" xml:space="preserve" width="27.8394mm" height="7.2262mm" version="1.1" style="shape-rendering:geometricPrecision; text-rendering:geometricPrecision; image-rendering:optimizeQuality; fill-rule:evenodd; clip-rule:evenodd"
viewBox="0 0 450 117"
 xmlns:xlink="http://www.w3.org/1999/xlink">
 <defs>
  <style type="text/css">
   <![CDATA[
    .fil0 {fill:#FFB516;fill-rule:nonzero}
   ]]>
  </style>
 </defs>
 <g id="Layer_x0020_1">
  <metadata id="CorelCorpID_0Corel-Layer"/>
  <g id="_2164941278752">
   <polygon class="fil0" points="79,117 53,117 53,65 25,65 25,117 0,117 0,2 25,2 25,46 53,46 53,2 79,2 "/>
   <path class="fil0" d="M136 32c-1,-4 -1,-8 -2,-11l-3 0c-1,3 -1,7 -2,11l-7 35 21 0 -7 -35zm-18 55l-5 30 -27 0 26 -109c1,-4 5,-6 9,-6l23 0c4,0 8,2 9,6l25 109 -26 0 -5 -30 -29 0z"/>
   <path class="fil0" d="M269 108c0,6 -3,9 -9,9l-15 0c-5,0 -8,-2 -10,-8l-19 -56c-2,-7 -4,-15 -6,-22l-1 0c1,7 1,15 1,22l0 64 -24 0 0 -106c0,-6 3,-9 9,-9l15 0c5,0 8,2 10,7l19 55c2,7 3,14 6,22l1 0c-1,-8 -1,-15 -1,-22l0 -62 24 0 0 106z"/>
   <path class="fil0" d="M326 32c-1,-4 -2,-8 -2,-11l-4 0c0,3 -1,7 -1,11l-7 35 21 0 -7 -35zm-18 55l-6 30 -26 0 26 -109c1,-4 4,-6 9,-6l23 0c4,0 8,2 9,6l25 109 -26 0 -6 -30 -28 0z"/>
   <path class="fil0" d="M413 56c9,0 12,-4 12,-18 0,-15 -3,-18 -12,-18l-12 0 0 36 12 0zm37 -18c0,29 -8,37 -33,37 -5,0 -11,0 -16,-1l0 43 -25 0 0 -115c12,-2 20,-2 38,-2 28,0 36,8 36,38z"/>
  </g>
 </g>
</svg>
