<svg xmlns="http://www.w3.org/2000/svg" viewBox="0 0 695.92 159.9"><title>unicoin-black-compound</title><g id="Layer_2" data-name="Layer 2"><g id="Layer_1-2" data-name="Layer 1"><path d="M80,0a80,80,0,1,0,80,80A79.94,79.94,0,0,0,80,0ZM77.52,129.73a31.9,31.9,0,0,1-29.81-26.4,32.39,32.39,0,0,1-.41-3.58c0-.62,0-1.24,0-1.87V43.13A28.31,28.31,0,0,1,75.08,66.24a28.65,28.65,0,0,1,.48,5.2V97.88a3.57,3.57,0,0,0,2,3.19ZM111,97.88c0,.51,0,1,0,1.52a33.5,33.5,0,0,1-.43,3.93,31.91,31.91,0,0,1-29.81,26.4V101.07a3.58,3.58,0,0,0,2-3.19V71.44a28.65,28.65,0,0,1,.48-5.2,28,28,0,0,1,27.48-22.76H111ZM82.72,56.74a32.1,32.1,0,0,0-2,4.64A30.77,30.77,0,0,0,79.61,66h0a32.59,32.59,0,0,0-.46,5.45A31.56,31.56,0,0,0,78.67,66a32,32,0,0,0-1.15-4.61A31.87,31.87,0,0,0,47.25,39.55H111A31.91,31.91,0,0,0,82.72,56.74Z"/><path d="M195.72,85.47V39.35H213.1V84.76c0,12.54,8,21.41,19.4,21.41s19.28-8.87,19.28-21.41V39.35h17.5V85.47C269.28,106.88,254,122,232.5,122S195.72,106.88,195.72,85.47Z"/><path d="M285.85,39.35h17.38l39.15,52.51V39.35h17.51V120.6H342.38L303.23,68.09V120.6H285.85Z"/><path d="M376.92,39.35h17.51V120.6H376.92Z"/><path d="M407.44,79.91c0-22.82,19.87-42,43.17-42a43.48,43.48,0,0,1,31.58,13.6L469.54,62.88a25.34,25.34,0,0,0-18.93-9.1c-13.6,0-25.19,12.06-25.19,26.13s11.59,26.26,25.19,26.26a25.31,25.31,0,0,0,18.93-9.11l12.65,11.36A44,44,0,0,1,450.61,122C427.31,122,407.44,102.74,407.44,79.91Z"/><path d="M488,79.91c0-22.82,19.87-42,43.17-42,23.54,0,43.17,19.16,43.17,42S554.7,122,531.16,122C507.86,122,488,102.74,488,79.91Zm68.48,0c0-14.07-11.59-26.13-25.31-26.13S506,65.84,506,79.91s11.59,26.26,25.19,26.26S556.47,94.11,556.47,79.91Z"/><path d="M587.46,39.35H605V120.6H587.46Z"/><path d="M621.88,39.35h17.39l39.15,52.51V39.35h17.5V120.6h-17.5L639.27,68.09V120.6H621.88Z"/></g></g></svg>