<svg xmlns="http://www.w3.org/2000/svg" viewBox="0 0 159.9 159.9"><defs><style>.cls-1{fill:#414042;}.cls-2{fill:#f7c812;}.cls-3{fill:#2fc1f1;}</style></defs><title>unicoin-color</title><g id="Layer_2" data-name="Layer 2"><g id="Layer_1-2" data-name="Layer 1"><circle class="cls-1" cx="79.95" cy="79.95" r="79.95"/><path class="cls-2" d="M111,39.55A31.87,31.87,0,0,0,80.76,61.38,30.77,30.77,0,0,0,79.61,66h0a32.59,32.59,0,0,0-.46,5.45A31.56,31.56,0,0,0,78.67,66a32,32,0,0,0-1.15-4.61A31.87,31.87,0,0,0,47.24,39.55Z"/><path class="cls-3" d="M111,43.48v54.4c0,.51,0,1,0,1.52a31.5,31.5,0,0,1-.42,3.93,31.91,31.91,0,0,1-29.81,26.4V101.07a3.58,3.58,0,0,0,2-3.19V71.44a28.65,28.65,0,0,1,.48-5.2,28,28,0,0,1,27.48-22.76Z"/><path class="cls-3" d="M77.52,101.07v28.66a31.9,31.9,0,0,1-29.81-26.4,32.39,32.39,0,0,1-.41-3.58c0-.62-.06-1.24-.06-1.87V43.13A28.32,28.32,0,0,1,75.08,66.24a28.65,28.65,0,0,1,.48,5.2V97.88A3.57,3.57,0,0,0,77.52,101.07Z"/></g></g></svg>