<svg xmlns="http://www.w3.org/2000/svg" viewBox="0 0 500.21 84.1"><defs><style>.cls-1{fill:#fff;}</style></defs><title>unicoin-white-text</title><g id="Layer_2" data-name="Layer 2"><g id="Layer_1-2" data-name="Layer 1"><path class="cls-1" d="M0,47.55V1.42H17.39V46.84c0,12.54,8,21.41,19.39,21.41s19.28-8.87,19.28-21.41V1.42H73.57V47.55C73.57,69,58.31,84.1,36.78,84.1S0,69,0,47.55Z"/><path class="cls-1" d="M90.13,1.42h17.39l39.15,52.51V1.42h17.5V82.68h-17.5L107.52,30.16V82.68H90.13Z"/><path class="cls-1" d="M181.21,1.42h17.5V82.68h-17.5Z"/><path class="cls-1" d="M211.72,42c0-22.83,19.87-42,43.18-42a43.45,43.45,0,0,1,31.57,13.6L273.82,25a25.31,25.31,0,0,0-18.92-9.11c-13.61,0-25.2,12.06-25.2,26.14s11.59,26.26,25.2,26.26a25.31,25.31,0,0,0,18.92-9.11l12.65,11.35A43.93,43.93,0,0,1,254.9,84.1C231.59,84.1,211.72,64.82,211.72,42Z"/><path class="cls-1" d="M292.27,42c0-22.83,19.87-42,43.18-42C359,0,378.62,19.16,378.62,42S359,84.1,335.45,84.1C312.14,84.1,292.27,64.82,292.27,42Zm68.49,0c0-14.08-11.6-26.14-25.31-26.14S310.25,27.91,310.25,42s11.59,26.26,25.2,26.26S360.76,56.18,360.76,42Z"/><path class="cls-1" d="M391.75,1.42h17.5V82.68h-17.5Z"/><path class="cls-1" d="M426.17,1.42h17.39l39.15,52.51V1.42h17.5V82.68h-17.5L443.56,30.16V82.68H426.17Z"/></g></g></svg>