<svg xmlns="http://www.w3.org/2000/svg" viewBox="0 0 159.9 159.9"><title>unioin-black</title><g id="Layer_2" data-name="Layer 2"><g id="Layer_1-2" data-name="Layer 1"><path d="M80,0a80,80,0,1,0,80,80A79.94,79.94,0,0,0,80,0ZM77.52,129.73a31.9,31.9,0,0,1-29.81-26.4,32.39,32.39,0,0,1-.41-3.58c0-.62,0-1.24,0-1.87V43.13A28.31,28.31,0,0,1,75.08,66.24a28.65,28.65,0,0,1,.48,5.2V97.88a3.57,3.57,0,0,0,2,3.19ZM111,97.88c0,.51,0,1,0,1.52a33.5,33.5,0,0,1-.43,3.93,31.91,31.91,0,0,1-29.81,26.4V101.07a3.58,3.58,0,0,0,2-3.19V71.44a28.65,28.65,0,0,1,.48-5.2,28,28,0,0,1,27.48-22.76H111ZM82.72,56.74a32.1,32.1,0,0,0-2,4.64A30.77,30.77,0,0,0,79.61,66h0a32.59,32.59,0,0,0-.46,5.45A31.56,31.56,0,0,0,78.67,66a32,32,0,0,0-1.15-4.61A31.87,31.87,0,0,0,47.25,39.55H111A31.91,31.91,0,0,0,82.72,56.74Z"/></g></g></svg>