<svg xmlns="http://www.w3.org/2000/svg" viewBox="0 0 253.74 42.66"><defs><style>.cls-1{fill:#414042;}</style></defs><title>unicoin-color-text</title><g id="Layer_2" data-name="Layer 2"><g id="Layer_1-2" data-name="Layer 1"><path class="cls-1" d="M0,24.12V.72H8.82v23c0,6.36,4.08,10.86,9.84,10.86s9.78-4.5,9.78-10.86V.72h8.88v23.4c0,10.86-7.74,18.54-18.66,18.54S0,35,0,24.12Z"/><path class="cls-1" d="M45.72.72h8.82L74.4,27.36V.72h8.88V41.94H74.4L54.54,15.3V41.94H45.72Z"/><path class="cls-1" d="M91.92.72h8.88V41.94H91.92Z"/><path class="cls-1" d="M107.4,21.3C107.4,9.72,117.48,0,129.3,0a22.06,22.06,0,0,1,16,6.9l-6.42,5.76A12.84,12.84,0,0,0,129.3,8c-6.9,0-12.78,6.12-12.78,13.26s5.88,13.32,12.78,13.32A12.84,12.84,0,0,0,138.9,30l6.42,5.76a22.3,22.3,0,0,1-16,6.9C117.48,42.66,107.4,32.88,107.4,21.3Z"/><path class="cls-1" d="M148.26,21.3c0-11.58,10.08-21.3,21.9-21.3s21.9,9.72,21.9,21.3-10,21.36-21.9,21.36S148.26,32.88,148.26,21.3Zm34.74,0C183,14.16,177.12,8,170.16,8s-12.78,6.12-12.78,13.26,5.88,13.32,12.78,13.32S183,28.5,183,21.3Z"/><path class="cls-1" d="M198.72.72h8.88V41.94h-8.88Z"/><path class="cls-1" d="M216.18.72H225l19.86,26.64V.72h8.88V41.94h-8.88L225,15.3V41.94h-8.82Z"/></g></g></svg>