<?xml version="1.0" encoding="UTF-8"?>
<!DOCTYPE svg PUBLIC "-//W3C//DTD SVG 1.1//EN" "http://www.w3.org/Graphics/SVG/1.1/DTD/svg11.dtd">
<!-- Creator: CorelDRAW X8 -->
<svg xmlns="http://www.w3.org/2000/svg" xml:space="preserve" width="86.1744mm" height="113.408mm" version="1.1" style="shape-rendering:geometricPrecision; text-rendering:geometricPrecision; image-rendering:optimizeQuality; fill-rule:evenodd; clip-rule:evenodd"
viewBox="0 0 35575 46817"
 xmlns:xlink="http://www.w3.org/1999/xlink">
 <defs>
  <style type="text/css">
   <![CDATA[
    .fil0 {fill:#2F2F2F}
   ]]>
  </style>
 </defs>
 <g id="Layer_x0020_1">
  <metadata id="CorelCorpID_0Corel-Layer"/>
  <g id="_2151576521296">
   <path class="fil0" d="M28008 0l-170 0 -2632 2359c-150,134 -209,224 -362,350l-3031 2688c-141,142 -230,198 -389,329l-4149 3711c-660,648 -2287,1969 -3043,2680l-6433 5720c-967,910 -2544,2205 -3391,3040 -145,143 -241,195 -394,324 -136,115 -276,277 -382,389 185,124 9581,2835 10302,2952l14074 -24542z"/>
   <path class="fil0" d="M14072 28892c719,-132 2078,-691 2830,-952l14298 -4932c324,-161 814,-595 1109,-822 501,-384 3035,-2256 3266,-2526l-12862 -3851c-309,517 -745,1111 -1085,1627 -362,549 -712,1080 -1080,1638l-6476 9818z"/>
   <path class="fil0" d="M0 46817c508,-297 1054,-778 1544,-1138l2999 -2291c4502,-3505 9114,-6891 13581,-10367 1819,-1415 4361,-3239 5997,-4607 -2753,710 -5580,1488 -8330,2274 -1337,382 -2906,706 -4211,1153 -362,123 -466,408 -678,679l-10902 14297z"/>
  </g>
 </g>
</svg>
