<svg xmlns="http://www.w3.org/2000/svg" viewBox="0 0 1282.2 603.61"><defs><style>.cls-1,.cls-2{fill:none;}.cls-2{stroke:#fff;stroke-miterlimit:10;stroke-width:3px;}.cls-3{fill:#fff;}</style></defs><title>hanap-branding-line-art-white</title><g id="Layer_2" data-name="Layer 2"><g id="Layer_1-2" data-name="Layer 1"><rect class="cls-1" width="1282.2" height="603.61"/><path class="cls-2" d="M596.52,363h-39V284.57H515V363H476.33V187.3H515v67.22h42.52V187.3h39Z"/><path class="cls-2" d="M656.6,316.9,647.69,363H608l39-165.5a13.13,13.13,0,0,1,13.24-10.19h35.65a13.62,13.62,0,0,1,13.49,10.19L748,363H708.55l-8.91-46.09Zm27-83.77c-1-5.34-2.29-11.2-2.8-16.55h-5.6c-.51,5.35-1.53,11.21-2.54,16.55l-10.44,53.73h31.57Z"/><path class="cls-2" d="M885.76,349c0,9.16-4.58,14-13.49,14H849.1c-7.9,0-12.48-3.31-15.28-11.46L805.3,265c-3.31-9.93-6.11-22.66-8.66-32.85h-1.78c.51,10.95,1,22.41,1,33.11V363H759.47V201.31c0-9.17,4.84-14,13.49-14h23.17c8.15,0,12.48,3.31,15.28,11.46L839.67,283c3.31,9.93,5.86,21.39,9.17,33.35h1.78c-.76-12.22-.76-23.68-.76-34.62V187.3h35.9Z"/><path class="cls-2" d="M945.59,316.9,936.68,363H897l39-165.5a13.13,13.13,0,0,1,13.24-10.19h35.65a13.62,13.62,0,0,1,13.49,10.19L1037,363H997.54l-8.92-46.09Zm27-83.77c-1-5.34-2.29-11.2-2.8-16.55h-5.6c-.51,5.35-1.53,11.21-2.55,16.55L951.2,286.86h31.57Z"/><path class="cls-2" d="M1162,242.3c0,45.32-13.24,57.54-50.67,57.54a188.45,188.45,0,0,1-24.19-1.52V363h-38.7V187.3c18.08-2,30.55-2.29,57.54-2.29C1148.78,185,1162,197.49,1162,242.3Zm-56.78,27.75c13.75,0,17.82-5.85,17.82-27.75s-3.82-27.5-17.82-27.5h-18.08v55.25Z"/><path class="cls-3" d="M260.64,397.92c3.63-7.21,7.57-14.27,11.61-21.27,2-3.49,4.14-7,6.27-10.4s4.33-6.81,6.69-10.19c1.19-1.68,2.43-3.31,3.73-4.91s2.68-3.13,4.1-4.63a75.79,75.79,0,0,1,9.21-8.31A52.82,52.82,0,0,1,313,331.73a30.87,30.87,0,0,1,6.19-2,18.18,18.18,0,0,1,6.84-.2,11.74,11.74,0,0,1,6.49,3.38,12.62,12.62,0,0,1,2.12,3,14.62,14.62,0,0,1,.73,1.62c.09.27.2.54.28.82l.13.41a3.35,3.35,0,0,1,.13.44,11.81,11.81,0,0,1,.29,3.69,20.93,20.93,0,0,1-.52,3.35,38.15,38.15,0,0,1-2,6.06,86.46,86.46,0,0,1-5.73,11q-1.59,2.63-3.29,5.18c-1.13,1.69-2.3,3.36-3.49,5s-2.4,3.29-3.65,4.9c-.64.82-1.25,1.58-1.85,2.38l-1.82,2.39c-2.4,3.2-4.7,6.49-6.87,9.85a100.21,100.21,0,0,0-6,10.37,43,43,0,0,0-2.3,5.53,16.35,16.35,0,0,0-1,5.88,16.11,16.11,0,0,1,.35-6.06,42,42,0,0,1,1.82-5.84,94.31,94.31,0,0,1,5.26-11c2-3.55,4.13-7,6.36-10.41.56-.85,1.12-1.69,1.71-2.53l1.76-2.47c1.15-1.63,2.27-3.29,3.37-5s2.16-3.36,3.2-5.06,2.07-3.41,3-5.14a90.25,90.25,0,0,0,5.21-10.59,36.59,36.59,0,0,0,1.73-5.42,15.54,15.54,0,0,0,.37-2.63,7.43,7.43,0,0,0-.19-2.32,1.36,1.36,0,0,0-.08-.28l-.1-.31a6.32,6.32,0,0,0-.22-.61,9.85,9.85,0,0,0-.51-1.14,8,8,0,0,0-1.38-1.93,7.38,7.38,0,0,0-4.08-2.08,14.21,14.21,0,0,0-5.18.16,27.78,27.78,0,0,0-5.32,1.68,50.53,50.53,0,0,0-10,5.82A86.4,86.4,0,0,0,288,358.14c-1.21,1.56-2.37,3.2-3.56,4.82L281,367.87c-2.33,3.29-4.6,6.61-6.86,9.95C269.56,384.47,265.13,391.21,260.64,397.92Z"/><path class="cls-3" d="M267.5,386.84c-.1-7.33-6.1-13.58-15.44-18.18a36.91,36.91,0,0,0-15.95-3.81,27.16,27.16,0,0,0-16.58,5.34c-6,4.48-8.77,8.64-8.56,12.72.37,7.1,10.08,13.81,18.5,18.86,13.92,8.35,10,31.18,9.82,32.15V434c-1.84,8.06-2.49,24.5,6.74,35,7.58,8.62,20.41,12.12,38.14,10.41,21.65-2.08,38.77-11.7,50.87-28.58a75.56,75.56,0,0,0,11.81-25v-.05a7.53,7.53,0,0,0-.79-6.27c-2.36-3.53-7.77-4.39-7.83-4.39l-1.61-.25.08-1.62c.18-3.37-.65-5.83-2.45-7.32-3.2-2.64-9.05-1.95-11-1.47l-2.74.68.55-2.77c.34-1.71.35-6.48-2.36-9s-7.86-1.9-11.69-1.19l2.47-4.12c5.07-.93,9,0,11.77,2.79s3.53,6.92,3.54,9.7c3-.35,8.18-.39,11.77,2.58,2.41,2,3.68,4.93,3.78,8.74,2.25.59,6.38,2.11,8.72,5.59a11,11,0,0,1,1.31,9.12A77.64,77.64,0,0,1,338,452.81c-8.76,12.26-25.16,27.45-53.53,30.19q-4.53.44-8.67.43c-14.56,0-25.47-4-32.51-12.05-12.48-14.19-8.16-35.5-7.57-38.13.17-1,3.43-21.47-8.13-28.4-9.76-5.86-19.79-13-20.25-21.75-.27-5.37,3-10.53,10-15.78,11.71-8.79,26.41-6.73,36.26-1.88s14.3,10.41,16.47,17Z"/><path class="cls-3" d="M340.64,413.41a158.91,158.91,0,0,0,39.3-24.06,156.65,156.65,0,0,0,38-46.83,151.92,151.92,0,0,0,17.19-57.92,149,149,0,0,0-.49-30.38A149.4,149.4,0,0,0,349,136.39a156.74,156.74,0,0,0-58.54-14.53,159.88,159.88,0,0,0-111.71,38.23A156.93,156.93,0,0,0,141.61,207a152.54,152.54,0,0,0-11.14,27.86A151,151,0,0,0,125,264.33a148.27,148.27,0,0,0,37,110.73,151.16,151.16,0,0,0,47.73,35.85A157.7,157.7,0,0,0,238,421.25l.07,3.63a157.14,157.14,0,0,1-29.92-10.49,154.34,154.34,0,0,1-49.29-36.45A150.69,150.69,0,0,1,140.71,353a151.64,151.64,0,0,1-2.53-147.8,158.88,158.88,0,0,1,38.56-47.51A162,162,0,0,1,290.55,120.5a158.94,158.94,0,0,1,58.74,15.33,154.78,154.78,0,0,1,26,15.78,152.83,152.83,0,0,1,22.4,20.59,150.46,150.46,0,0,1,37.59,112.41,153,153,0,0,1-5.5,29.93,155,155,0,0,1-11.31,28.27A159.63,159.63,0,0,1,355.83,408c-4.35,2.49-8.83,4.77-13.4,6.84Z"/></g></g></svg>