<svg xmlns="http://www.w3.org/2000/svg" xmlns:xlink="http://www.w3.org/1999/xlink" viewBox="0 0 315.65 363.25"><defs><style>.cls-1{fill:none;}.cls-2{fill:#fabf1b;}.cls-3{fill:#7c3500;}.cls-4{fill:#fff;}.cls-5{clip-path:url(#clip-path);}.cls-6{fill:#994500;}.cls-7{clip-path:url(#clip-path-2);}</style><clipPath id="clip-path"><ellipse class="cls-1" cx="51.21" cy="145.07" rx="43.08" ry="29.92" transform="translate(-97.67 183.85) rotate(-85.16)"/></clipPath><clipPath id="clip-path-2"><ellipse class="cls-1" cx="149.12" cy="94.22" rx="36.5" ry="44.27" transform="translate(-25.15 66.93) rotate(-23.39)"/></clipPath></defs><title>hanap-icon-color</title><g id="Layer_2" data-name="Layer 2"><g id="Layer_1-2" data-name="Layer 1"><ellipse class="cls-2" cx="158.88" cy="154.2" rx="157.07" ry="153.03" transform="translate(-40.7 58.36) rotate(-18.49)"/><path class="cls-3" d="M307.85,104.38A151.21,151.21,0,0,1,314.56,134a149.23,149.23,0,0,1,.58,30.4,153,153,0,0,1-5.5,29.93,155.76,155.76,0,0,1-11.31,28.27,159.63,159.63,0,0,1-62.68,65.16,164,164,0,0,1-27.87,12.6A162.05,162.05,0,0,1,147.34,309,159,159,0,0,1,88,294.21a154.34,154.34,0,0,1-49.29-36.45,151.11,151.11,0,0,1-18.15-24.94A151.64,151.64,0,0,1,18,85,158.75,158.75,0,0,1,56.56,37.51,162,162,0,0,1,170.37.32a158.67,158.67,0,0,1,58.74,15.32,156.11,156.11,0,0,1,26,15.78A153.45,153.45,0,0,1,277.55,52a149.72,149.72,0,0,1,30.3,52.36Zm0,0a149.63,149.63,0,0,0-79-88.17A156.74,156.74,0,0,0,170.3,1.68a159.71,159.71,0,0,0-59.6,8.45A162.25,162.25,0,0,0,83.21,22.57,158.91,158.91,0,0,0,58.59,39.91a156.93,156.93,0,0,0-37.16,46.9A151.06,151.06,0,0,0,4.86,144.15a147.7,147.7,0,0,0,.58,29.95,149.5,149.5,0,0,0,18.89,56.52,147.34,147.34,0,0,0,17.56,24.26,151.16,151.16,0,0,0,47.73,35.85,156.63,156.63,0,0,0,57.9,15.11,159.91,159.91,0,0,0,112.24-36.67,156.65,156.65,0,0,0,38-46.83A151.92,151.92,0,0,0,315,164.42a149,149,0,0,0-.49-30.38A150.58,150.58,0,0,0,307.85,104.38Z"/><ellipse class="cls-4" cx="51.21" cy="145.07" rx="43.08" ry="29.92" transform="translate(-97.67 183.85) rotate(-85.16)"/><path class="cls-3" d="M81.13,147.61a60.79,60.79,0,0,1-2.84,14.17A51.69,51.69,0,0,1,72,174.83a36,36,0,0,1-10.28,10.33A25.08,25.08,0,0,1,55,188.24a23,23,0,0,1-7.48.83,23.27,23.27,0,0,1-7.38-1.75,25.56,25.56,0,0,1-6.47-4,33,33,0,0,1-5.22-5.47,37,37,0,0,1-3.95-6.4A50.85,50.85,0,0,1,20,157.26a61.81,61.81,0,0,1-.57-14.88,62.78,62.78,0,0,1,3.06-14.58,51.87,51.87,0,0,1,6.84-13.27,36.09,36.09,0,0,1,11-10.15,25.42,25.42,0,0,1,7-2.81,23.24,23.24,0,0,1,7.57-.48,22.6,22.6,0,0,1,7.22,2.07,25,25,0,0,1,6.16,4.17,36.12,36.12,0,0,1,8.39,11.91,52.22,52.22,0,0,1,4,13.92A61.3,61.3,0,0,1,81.13,147.61Zm-.22,0a60.71,60.71,0,0,0-.5-14.38,50.66,50.66,0,0,0-4.16-13.74A35.07,35.07,0,0,0,67.75,108a22.71,22.71,0,0,0-12.92-5.67,22.72,22.72,0,0,0-13.68,3.44,35,35,0,0,0-10.27,9.9,50.49,50.49,0,0,0-6.38,12.84,61.37,61.37,0,0,0-2.41,28.43,50.18,50.18,0,0,0,4.13,13.73,34.82,34.82,0,0,0,8.46,11.49,22.68,22.68,0,0,0,12.9,5.69,22.71,22.71,0,0,0,13.69-3.41,35,35,0,0,0,10.31-9.89A50.85,50.85,0,0,0,78,161.68,61.08,61.08,0,0,0,80.91,147.59Z"/><ellipse class="cls-4" cx="149.12" cy="94.22" rx="36.5" ry="44.27" transform="translate(-25.15 66.93) rotate(-23.39)"/><path class="cls-3" d="M182.72,79.69A53.36,53.36,0,0,1,186.86,95a47.5,47.5,0,0,1-.76,15.9,39.08,39.08,0,0,1-6.48,14.64A31.76,31.76,0,0,1,151,138.61a38.81,38.81,0,0,1-15.73-4.81,47.53,47.53,0,0,1-12.75-10.38A53.57,53.57,0,0,1,109.64,93.6a47.69,47.69,0,0,1,1.17-16.4,39.1,39.1,0,0,1,7.26-14.75,32.63,32.63,0,0,1,13.06-9.84,32.06,32.06,0,0,1,16-2.07,39.23,39.23,0,0,1,15.11,5.3,47.6,47.6,0,0,1,12.1,10.34A53.32,53.32,0,0,1,182.72,79.69Zm-.2.09a53.23,53.23,0,0,0-8.38-13.4A46.29,46.29,0,0,0,162,56.29a37.73,37.73,0,0,0-14.94-4.89,30.56,30.56,0,0,0-27.74,12,37.81,37.81,0,0,0-6.63,14.23,46.23,46.23,0,0,0-.93,15.73A53.33,53.33,0,0,0,124.16,122a46.51,46.51,0,0,0,12.09,10.09A37.72,37.72,0,0,0,151.17,137a30.53,30.53,0,0,0,27.76-12,37.73,37.73,0,0,0,6.66-14.23,46.35,46.35,0,0,0,1-15.75A53.28,53.28,0,0,0,182.52,79.78Z"/><path d="M17.78,100a21.61,21.61,0,0,1-1.12-4.37,32,32,0,0,1-.39-4.35c0-.72,0-1.44,0-2.16s.1-1.43.16-2.16a33,33,0,0,1,.72-4.28,33.41,33.41,0,0,1,3.16-8.38,28.82,28.82,0,0,1,6-7.71,24.87,24.87,0,0,1,4.37-3.15A21.07,21.07,0,0,1,36,61.36a19.49,19.49,0,0,1,5.72-.6,19.64,19.64,0,0,1,10,3.24c.35.22.67.45,1,.69s.65.46.95.73c.59.53,1.18,1,1.7,1.59a22.24,22.24,0,0,1,2.81,3.58c.4.62.75,1.3,1.1,2a20.92,20.92,0,0,1,.87,2.12l-.56.7A43.58,43.58,0,0,0,53,71.29a23.18,23.18,0,0,0-7.1-2.39,15.44,15.44,0,0,0-7.28.56,17.7,17.7,0,0,0-6.28,3.82A29.86,29.86,0,0,0,27.49,79a54.22,54.22,0,0,0-3.71,6.68,71.27,71.27,0,0,0-2.88,7.13,76.19,76.19,0,0,0-2.23,7.37Z"/><g class="cls-5"><ellipse class="cls-6" cx="60.83" cy="127.95" rx="24.85" ry="21.81" transform="translate(-71.8 177.76) rotate(-85.16)"/><path d="M60.39,153.9c-.58,0-1.17,0-1.75-.07a21.52,21.52,0,0,1-15.56-9A27.61,27.61,0,0,1,38,126c1.2-14.27,12.44-25,25-23.94s21.87,13.55,20.66,27.82h0a27.68,27.68,0,0,1-8.19,17.68A21.71,21.71,0,0,1,60.39,153.9Zm.91-49.66c-10.73,0-20,9.52-21.08,22a25.4,25.4,0,0,0,4.67,17.29,18.85,18.85,0,0,0,29,2.46,25.39,25.39,0,0,0,7.51-16.25c1.11-13-7.24-24.43-18.61-25.4Q62.07,104.24,61.3,104.24Z"/><path d="M72.81,131.33A11.83,11.83,0,1,1,62,118.54,11.83,11.83,0,0,1,72.81,131.33Z"/><path class="cls-4" d="M61.72,122c-.16,1.91-2.93,3.23-6.18,3s-5.77-2-5.61-4,2.93-3.23,6.19-3S61.88,120.09,61.72,122Z"/><path class="cls-4" d="M63.67,142.23c-.15,1.77-1.28,3.12-2.53,3s-2.13-1.63-2-3.4,1.28-3.12,2.53-3S63.82,140.46,63.67,142.23Z"/></g><g class="cls-7"><ellipse class="cls-6" cx="155.2" cy="74.21" rx="26.06" ry="22.87" transform="matrix(0.08, -1, 1, 0.08, 68.15, 222.59)"/><path d="M154.71,101.38c-.59,0-1.2,0-1.8-.08a22.54,22.54,0,0,1-16.28-9.42,29.83,29.83,0,0,1,3.24-38.2,22.07,22.07,0,0,1,33.91,2.87,29,29,0,0,1,5.33,19.69h0C177.9,90.49,167.15,101.38,154.71,101.38Zm1-52.09a20.49,20.49,0,0,0-14.25,6,27.59,27.59,0,0,0-3,35.25,20.26,20.26,0,0,0,14.66,8.52c12,1,22.61-9.31,23.77-23l1.12.09-1.12-.09A26.66,26.66,0,0,0,172,57.88a20.32,20.32,0,0,0-14.66-8.52C156.77,49.32,156.22,49.29,155.68,49.29Z"/><path d="M168.24,76.56a13.19,13.19,0,1,1-12-14.25A13.19,13.19,0,0,1,168.24,76.56Z"/><path class="cls-4" d="M155.89,66.16c-.18,2.12-3.27,3.6-6.9,3.29s-6.42-2.28-6.24-4.41,3.27-3.6,6.89-3.29S156.07,64,155.89,66.16Z"/><path class="cls-4" d="M158.06,88.7c-.17,2-1.43,3.48-2.82,3.36s-2.38-1.81-2.21-3.78,1.43-3.48,2.82-3.36S158.23,86.73,158.06,88.7Z"/></g><path class="cls-2" d="M167.93,143.2s11.52-81.63,55.77-67.3"/><path class="cls-3" d="M167.93,143.2c.06-2.08.25-4.16.48-6.23s.52-4.13.86-6.19c.68-4.12,1.58-8.2,2.67-12.25a100.17,100.17,0,0,1,9.37-23.41c1.06-1.84,2.19-3.65,3.42-5.4a58.67,58.67,0,0,1,4-5,37.93,37.93,0,0,1,10.12-8.15,28.49,28.49,0,0,1,6.08-2.43,25.7,25.7,0,0,1,6.44-.89,28.18,28.18,0,0,1,6.37.67c1,.27,2,.51,3,.87s2,.75,2.92,1.15c-1-.16-2-.39-3.07-.49s-2-.22-3-.3a32.49,32.49,0,0,0-6,.3,26.21,26.21,0,0,0-5.71,1.49,28.4,28.4,0,0,0-5.2,2.68A38.75,38.75,0,0,0,192,87.47a67.07,67.07,0,0,0-6.76,9.88,142.41,142.41,0,0,0-9.91,22.24c-1.39,3.85-2.67,7.75-3.89,11.69-.61,2-1.19,3.95-1.78,5.93-.3,1-.58,2-.85,3S168.21,142.2,167.93,143.2Z"/><path class="cls-3" d="M74.56,235.43a172.14,172.14,0,0,0,23.9-6.2A188.14,188.14,0,0,0,121.13,220q5.49-2.69,10.76-5.73c3.5-2,6.93-4.19,10.26-6.49s6.58-4.69,9.71-7.24,6.16-5.22,9.06-8,5.73-5.68,8.37-8.73,5.21-6.16,7.6-9.42,4.68-6.59,6.8-10c1.1-1.7,2.07-3.48,3.11-5.22l1.46-2.67.74-1.33.69-1.36,1.38-2.72,1.32-2.75.66-1.38.61-1.4,1.25-2.79c1.57-3.76,3.1-7.56,4.44-11.43l1-2.91.94-2.93c.67-1.94,1.21-3.93,1.82-5.9.31-1,.58-2,.85-3l.82-3c.54-2,1-4,1.55-6-.08,1-.16,2.07-.26,3.1s-.17,2.07-.29,3.1l-.41,3.1c-.13,1-.26,2.06-.44,3.09-.33,2.05-.65,4.11-1.08,6.15l-.63,3.07-.72,3c-.47,2-1.05,4.05-1.61,6.07-.26,1-.6,2-.91,3s-.63,2-1,3l-1,3-.53,1.48-.58,1.46-1.16,2.94L194.46,156l-.63,1.45-.68,1.43-1.37,2.85c-1,1.87-1.92,3.76-3,5.58a124.67,124.67,0,0,1-6.73,10.75,128.42,128.42,0,0,1-16.49,19.28c-3.07,2.92-6.24,5.73-9.58,8.34s-6.77,5.08-10.32,7.37a140.65,140.65,0,0,1-22.38,11.72,147.17,147.17,0,0,1-24,7.59c-4.08.9-8.19,1.65-12.33,2.17-2.07.26-4.14.48-6.22.64S76.64,235.47,74.56,235.43Z"/><path class="cls-3" d="M190,135.36a30,30,0,0,1,.33-7.26,36.48,36.48,0,0,1,1.88-7.12,34,34,0,0,1,3.37-6.67c.36-.52.7-1,1.09-1.55s.78-1,1.18-1.49l1.3-1.41c.45-.45.93-.88,1.39-1.32l.35-.32.38-.3.76-.59c.25-.2.49-.41.76-.59l.8-.53a18.41,18.41,0,0,1,1.64-1c.57-.29,1.12-.63,1.71-.88l1.77-.74c.59-.24,1.21-.4,1.81-.6l.91-.27.93-.2c.62-.12,1.23-.28,1.86-.36a30.75,30.75,0,0,1,14.52,1.49c-.6.06-1.2.09-1.8.13s-1.19,0-1.78.1l-1.76.17-.87.07-.87.12-1.71.24c-.57.08-1.13.22-1.69.33s-1.12.19-1.66.36l-1.63.44a33.35,33.35,0,0,0-6.12,2.52c-.48.26-.94.56-1.41.84a12.39,12.39,0,0,0-1.36.91l-.67.46c-.22.15-.43.34-.64.51l-.64.51-.31.26-.3.28a31.72,31.72,0,0,0-4.47,4.85,46.27,46.27,0,0,0-3.64,5.69A74.89,74.89,0,0,0,190,135.36Z"/><path class="cls-3" d="M160.24,214.34c2.57-2.35,5.09-4.5,7.57-6.7s4.89-4.37,7.24-6.61,4.62-4.56,6.84-6.95c.54-.61,1.1-1.21,1.67-1.81s1.06-1.26,1.61-1.89l.84-.93c.27-.33.52-.66.79-1q.81-1,1.71-1.95c-.16.85-.36,1.69-.6,2.53-.11.43-.24.84-.37,1.26l-.48,1.21c-.34.8-.68,1.61-1.06,2.4s-.84,1.52-1.28,2.27a39.13,39.13,0,0,1-6.57,8.09,44.75,44.75,0,0,1-8.3,6.22c-.75.42-1.51.85-2.28,1.23s-1.56.75-2.36,1.07l-1.21.47-1.23.42A19.55,19.55,0,0,1,160.24,214.34Z"/><path class="cls-2" d="M117.34,313.42s4-22.49-9-30.29C91,272.69,80.32,262,98.27,248.57c19.59-14.69,50.71,1.57,50.94,19.52,0,0,28.21,3.81,40.38,1.57,13-2.39,13.69,9.5,13,12.87,0,0,16.45-4,15.7,10.62,0,0,12.79,1.87,10.1,12.86,0,0-10.63,49.86-64.26,55S115.13,323.1,117.34,313.42Z"/><path class="cls-3" d="M155.66,363.25c-14.56,0-25.47-4-32.51-12.05-12.48-14.19-8.16-35.5-7.57-38.13.17-1,3.43-21.47-8.13-28.4-9.76-5.86-19.8-13-20.25-21.75-.27-5.37,3-10.53,10-15.78,11.72-8.79,26.42-6.73,36.27-1.88s16.59,13.08,17.45,21.24c5.91.73,28.17,3.27,38.36,1.4,5.07-.93,9,0,11.77,2.79s3.53,6.92,3.54,9.69c3-.34,8.18-.38,11.77,2.59,2.41,2,3.68,4.93,3.78,8.74,2.25.59,6.38,2.11,8.72,5.59a11,11,0,0,1,1.31,9.12,77.55,77.55,0,0,1-12.31,26.21c-8.75,12.26-25.15,27.45-53.52,30.18Q159.8,363.25,155.66,363.25ZM115.92,244.67A27.15,27.15,0,0,0,99.35,250c-6,4.48-8.77,8.64-8.56,12.72.36,7.1,10.08,13.81,18.5,18.86,13.92,8.35,10,31.18,9.82,32.15l0,.08c-1.84,8.06-2.49,24.5,6.75,35,7.58,8.62,20.41,12.12,38.14,10.41,21.65-2.08,38.77-11.7,50.87-28.58a75.56,75.56,0,0,0,11.81-25v-.05a7.53,7.53,0,0,0-.79-6.27c-2.36-3.53-7.77-4.39-7.83-4.39l-1.61-.25.08-1.62c.17-3.37-.65-5.83-2.46-7.32-3.19-2.64-9-1.95-11-1.47l-2.75.68.56-2.77c.34-1.71.22-6.35-2.37-9-1.85-1.89-4.73-2.48-8.56-1.78-12.31,2.27-39.79-1.4-40.95-1.56l-1.54-.2,0-1.55c-.09-7.33-6.19-15-15.54-19.64A36.7,36.7,0,0,0,115.92,244.67Z"/><path class="cls-2" d="M140.45,277.74s13.14-22.69,24.69-39c17.2-24.36,43.53-36.46,48.44-19.3,3.09,10.8-18.15,38.63-18.15,38.63s-19.3,25.28-18,36.54"/><path class="cls-3" d="M140.45,277.74c3.64-7.22,7.58-14.27,11.62-21.28q3.06-5.23,6.27-10.39c2.14-3.45,4.33-6.81,6.69-10.19,1.19-1.68,2.43-3.31,3.73-4.91s2.68-3.13,4.1-4.63a75.79,75.79,0,0,1,9.21-8.31,52.82,52.82,0,0,1,10.79-6.48,30.87,30.87,0,0,1,6.19-2,18.18,18.18,0,0,1,6.84-.2,11.79,11.79,0,0,1,6.49,3.37,12.68,12.68,0,0,1,2.12,3,12.91,12.91,0,0,1,.72,1.62c.1.27.21.54.29.82l.13.41c0,.13.09.27.13.44a11.81,11.81,0,0,1,.29,3.69,20.63,20.63,0,0,1-.52,3.34,37.93,37.93,0,0,1-2,6.07,86.46,86.46,0,0,1-5.73,11q-1.59,2.63-3.29,5.17c-1.13,1.7-2.3,3.37-3.49,5s-2.4,3.28-3.65,4.9c-.64.82-1.25,1.58-1.85,2.38l-1.82,2.39c-2.4,3.2-4.7,6.48-6.87,9.85a100.21,100.21,0,0,0-6,10.37,42.41,42.41,0,0,0-2.3,5.53,16.35,16.35,0,0,0-1,5.88,16.1,16.1,0,0,1,.35-6.06,42.6,42.6,0,0,1,1.82-5.85,93.34,93.34,0,0,1,5.26-11c2-3.55,4.13-7,6.36-10.41.56-.85,1.12-1.7,1.71-2.53l1.76-2.47c1.15-1.63,2.27-3.29,3.37-5s2.16-3.36,3.2-5.06,2.06-3.41,3-5.14a90.25,90.25,0,0,0,5.21-10.59,36.59,36.59,0,0,0,1.73-5.42,16.79,16.79,0,0,0,.37-2.63,7.43,7.43,0,0,0-.19-2.32l-.08-.28-.1-.31a6.32,6.32,0,0,0-.22-.61,9.85,9.85,0,0,0-.51-1.14,8.32,8.32,0,0,0-1.38-1.93,7.38,7.38,0,0,0-4.08-2.08,14,14,0,0,0-5.18.16,27.09,27.09,0,0,0-5.32,1.68,50.53,50.53,0,0,0-10,5.82A86.12,86.12,0,0,0,167.83,238c-1.21,1.55-2.37,3.2-3.56,4.82l-3.48,4.91c-2.33,3.29-4.6,6.61-6.86,9.95C149.38,264.29,145,271,140.45,277.74Z"/><path d="M109.22,26.18c1,1.4,2,2.78,2.86,4.12s1.77,2.64,2.64,3.9c1.73,2.52,3.39,4.9,5.09,7,.42.52.84,1,1.27,1.49s.83,1,1.26,1.37a23.45,23.45,0,0,0,2.49,2.23,13.63,13.63,0,0,0,2.36,1.51,5.94,5.94,0,0,1,.57.27l.56.22c.19.06.37.15.56.2l.57.17a13,13,0,0,0,2.48.41l.7,0h.74L135,49a31.15,31.15,0,0,0,3.49-.57c1.22-.27,2.52-.6,3.84-1,2.65-.77,5.44-1.74,8.37-2.75l1.12-.37c.37-.13.73-.28,1.11-.4l2.3-.76c.77-.27,1.58-.49,2.37-.75s1.63-.49,2.5-.68l.6.66c-2.27,2.15-4.62,4.23-7.09,6.18a63.29,63.29,0,0,1-7.87,5.24c-.7.38-1.41.74-2.12,1.1s-1.44.67-2.19.95a28.73,28.73,0,0,1-4.58,1.46,20.19,20.19,0,0,1-9.68,0,17.14,17.14,0,0,1-4.5-1.95,20.42,20.42,0,0,1-3.82-3,29.5,29.5,0,0,1-5.45-7.87,51.32,51.32,0,0,1-3.3-8.88,61,61,0,0,1-1.72-9.29Z"/><path d="M20.9,137.78a52.89,52.89,0,0,1,1.91-10q.72-2.46,1.64-4.87c.62-1.6,1.34-3.16,2.12-4.7.4-.77.81-1.53,1.25-2.28s.91-1.47,1.4-2.19a36.66,36.66,0,0,1,3.25-4.11,29.38,29.38,0,0,1,3.94-3.53,23,23,0,0,1,2.21-1.48l1.15-.67,1.18-.61a26.66,26.66,0,0,1,10.23-2.67,24.88,24.88,0,0,1,10.4,1.69,24.25,24.25,0,0,1,8.64,5.82A22.27,22.27,0,0,1,75.38,117a25.14,25.14,0,0,0-6.06-7.87,24.39,24.39,0,0,0-18-5.93,25.92,25.92,0,0,0-9.22,2.57l-1.08.54-1,.59a22.6,22.6,0,0,0-2,1.32,29.62,29.62,0,0,0-3.65,3.17,40.76,40.76,0,0,0-5.9,7.84,64.12,64.12,0,0,0-4.35,9A80.35,80.35,0,0,0,20.9,137.78Z"/><path d="M111,96.64a41.11,41.11,0,0,1-1-6.83,47.28,47.28,0,0,1,0-6.94c.09-1.16.21-2.32.38-3.48s.4-2.3.67-3.44a36.56,36.56,0,0,1,2.25-6.69,32.86,32.86,0,0,1,3.59-6.14,29.92,29.92,0,0,1,2.3-2.73,30.35,30.35,0,0,1,2.6-2.47c.44-.39.92-.75,1.39-1.12s1-.71,1.46-1A33.93,33.93,0,0,1,127.62,54a38.41,38.41,0,0,1,6.56-2.67l.08,0h0a71.69,71.69,0,0,1,7.6-1.26,29.2,29.2,0,0,1,7.81.26,27.57,27.57,0,0,1,7.36,2.44,35.93,35.93,0,0,1,6.44,4.11c-1.11-.61-2.23-1.19-3.37-1.73s-2.3-1-3.46-1.46a30.37,30.37,0,0,0-3.57-1.06,26.48,26.48,0,0,0-3.63-.62,29.91,29.91,0,0,0-7.32.23c-2.44.37-4.86.93-7.32,1.53l.11,0a43.79,43.79,0,0,0-6.08,2.64A33.52,33.52,0,0,0,123.42,60a31.59,31.59,0,0,0-8,10.31c-.49,1-.93,2-1.33,3s-.78,2.09-1.1,3.16-.6,2.15-.83,3.25-.47,2.2-.64,3.31A61.11,61.11,0,0,0,111,96.64Z"/></g></g></svg>