<svg xmlns="http://www.w3.org/2000/svg" xmlns:xlink="http://www.w3.org/1999/xlink" viewBox="0 0 1282.2 603.61"><defs><style>.cls-1{fill:none;}.cls-2{fill:#fff;}.cls-3{fill:#fabf1b;}.cls-4{fill:#7c3500;}.cls-5{clip-path:url(#clip-path);}.cls-6{fill:#994500;}.cls-7{clip-path:url(#clip-path-2);}</style><clipPath id="clip-path"><ellipse class="cls-1" cx="171.39" cy="265.25" rx="43.08" ry="29.92" transform="translate(-107.39 413.63) rotate(-85.16)"/></clipPath><clipPath id="clip-path-2"><ellipse class="cls-1" cx="269.3" cy="214.4" rx="36.5" ry="44.27" transform="translate(-62.98 124.51) rotate(-23.39)"/></clipPath></defs><title>hanap-color-white</title><g id="Layer_2" data-name="Layer 2"><g id="Layer_1-2" data-name="Layer 1"><rect class="cls-1" width="1282.2" height="603.61"/><path class="cls-2" d="M596.52,363h-39V284.57H515V363H476.33V187.3H515v67.22h42.52V187.3h39Z"/><path class="cls-2" d="M656.6,316.9,647.69,363H608l39-165.5a13.13,13.13,0,0,1,13.24-10.19h35.65a13.62,13.62,0,0,1,13.49,10.19L748,363H708.55l-8.91-46.09Zm27-83.77c-1-5.34-2.29-11.2-2.8-16.55h-5.6c-.51,5.35-1.53,11.21-2.54,16.55l-10.44,53.73h31.57Z"/><path class="cls-2" d="M885.76,349c0,9.16-4.58,14-13.49,14H849.1c-7.9,0-12.48-3.31-15.28-11.46L805.3,265c-3.31-9.93-6.11-22.66-8.66-32.85h-1.78c.51,10.95,1,22.41,1,33.11V363H759.47V201.31c0-9.17,4.84-14,13.49-14h23.17c8.15,0,12.48,3.31,15.28,11.46L839.67,283c3.31,9.93,5.86,21.39,9.17,33.35h1.78c-.76-12.22-.76-23.68-.76-34.62V187.3h35.9Z"/><path class="cls-2" d="M945.59,316.9,936.68,363H897l39-165.5a13.13,13.13,0,0,1,13.24-10.19h35.65a13.62,13.62,0,0,1,13.49,10.19L1037,363H997.54l-8.92-46.09Zm27-83.77c-1-5.34-2.29-11.2-2.8-16.55h-5.6c-.51,5.35-1.53,11.21-2.55,16.55L951.2,286.86h31.57Z"/><path class="cls-2" d="M1162,242.3c0,45.32-13.24,57.54-50.67,57.54a188.45,188.45,0,0,1-24.19-1.52V363h-38.7V187.3c18.08-2,30.55-2.29,57.54-2.29C1148.78,185,1162,197.49,1162,242.3Zm-56.78,27.75c13.75,0,17.82-5.85,17.82-27.75s-3.82-27.5-17.82-27.5h-18.08v55.25Z"/><ellipse class="cls-3" cx="279.06" cy="274.38" rx="157.07" ry="153.03" transform="translate(-72.62 102.68) rotate(-18.49)"/><path class="cls-4" d="M428,224.56a149.67,149.67,0,0,1,7.29,60.05,153,153,0,0,1-5.5,29.93,155,155,0,0,1-11.31,28.27A159.63,159.63,0,0,1,355.83,408,164,164,0,0,1,328,420.57a162,162,0,0,1-60.43,8.57,159,159,0,0,1-59.38-14.75,154.34,154.34,0,0,1-49.29-36.45A150.69,150.69,0,0,1,140.71,353a151.64,151.64,0,0,1-2.53-147.8,158.88,158.88,0,0,1,38.56-47.51A162,162,0,0,1,290.55,120.5a158.94,158.94,0,0,1,58.74,15.33,154.78,154.78,0,0,1,26,15.78,152.83,152.83,0,0,1,22.4,20.59A150,150,0,0,1,428,224.56Zm0,0a149.63,149.63,0,0,0-79-88.17,156.74,156.74,0,0,0-58.54-14.53,159.88,159.88,0,0,0-111.71,38.23A156.93,156.93,0,0,0,141.61,207a152.54,152.54,0,0,0-11.14,27.86A151,151,0,0,0,125,264.33a148.27,148.27,0,0,0,37,110.73,151.16,151.16,0,0,0,47.73,35.85A157.7,157.7,0,0,0,238,421.25,156.11,156.11,0,0,0,267.7,426a159.91,159.91,0,0,0,112.24-36.67,156.65,156.65,0,0,0,38-46.83,151.92,151.92,0,0,0,17.19-57.92,149,149,0,0,0-.49-30.38A150.73,150.73,0,0,0,428,224.56Z"/><ellipse class="cls-2" cx="171.39" cy="265.25" rx="43.08" ry="29.92" transform="translate(-107.39 413.63) rotate(-85.16)"/><path class="cls-4" d="M201.31,267.79A60.79,60.79,0,0,1,198.47,282,52,52,0,0,1,192.19,295a36.32,36.32,0,0,1-10.29,10.34,25.37,25.37,0,0,1-6.76,3.07,23,23,0,0,1-7.48.83,23.27,23.27,0,0,1-7.38-1.75,25.56,25.56,0,0,1-6.47-4,33.3,33.3,0,0,1-5.22-5.46,38.76,38.76,0,0,1-4-6.41,50.85,50.85,0,0,1-4.5-14.23,61.81,61.81,0,0,1-.57-14.88A62.61,62.61,0,0,1,142.64,248a51.58,51.58,0,0,1,6.83-13.28,36.33,36.33,0,0,1,11-10.15,25.42,25.42,0,0,1,7-2.81,23.24,23.24,0,0,1,7.57-.48,22.86,22.86,0,0,1,7.22,2.07,25,25,0,0,1,6.16,4.17,36.12,36.12,0,0,1,8.39,11.91,52,52,0,0,1,4,13.92A61.3,61.3,0,0,1,201.31,267.79Zm-.22,0a60.71,60.71,0,0,0-.5-14.38,50.41,50.41,0,0,0-4.16-13.74,34.93,34.93,0,0,0-8.5-11.49,21.76,21.76,0,0,0-26.59-2.23,34.9,34.9,0,0,0-10.28,9.9,50.49,50.49,0,0,0-6.38,12.84,61.4,61.4,0,0,0-2.41,28.43,50.35,50.35,0,0,0,4.13,13.74,35,35,0,0,0,8.46,11.49,21.81,21.81,0,0,0,26.6,2.27,34.93,34.93,0,0,0,10.3-9.89,50.52,50.52,0,0,0,6.42-12.85A61,61,0,0,0,201.09,267.77Z"/><ellipse class="cls-2" cx="269.3" cy="214.4" rx="36.5" ry="44.27" transform="translate(-62.98 124.51) rotate(-23.39)"/><path class="cls-4" d="M302.9,199.87A53.36,53.36,0,0,1,307,215.2a47.5,47.5,0,0,1-.76,15.9,39.08,39.08,0,0,1-6.48,14.64A32.19,32.19,0,0,1,287.3,256a32.6,32.6,0,0,1-16.11,2.78A38.89,38.89,0,0,1,255.47,254a47.57,47.57,0,0,1-12.76-10.38,53.59,53.59,0,0,1-12.89-29.81A48,48,0,0,1,231,197.38a39.25,39.25,0,0,1,7.26-14.75,32.63,32.63,0,0,1,13.06-9.84,32.28,32.28,0,0,1,16-2.07,39.23,39.23,0,0,1,15.11,5.3,47.6,47.6,0,0,1,12.1,10.34A53.32,53.32,0,0,1,302.9,199.87Zm-.2.09a53.19,53.19,0,0,0-8.37-13.4,46.7,46.7,0,0,0-12.13-10.09,37.89,37.89,0,0,0-14.94-4.89,30.56,30.56,0,0,0-27.74,12,37.81,37.81,0,0,0-6.63,14.23,46.5,46.5,0,0,0-.93,15.73,53.24,53.24,0,0,0,12.39,28.63,46.19,46.19,0,0,0,12.09,10.09,37.63,37.63,0,0,0,14.91,4.91,30.56,30.56,0,0,0,27.76-12A37.84,37.84,0,0,0,305.77,231a46.3,46.3,0,0,0,1-15.74A53.25,53.25,0,0,0,302.7,200Z"/><path d="M138,220.22a21.65,21.65,0,0,1-1.13-4.37,32,32,0,0,1-.39-4.34c0-.73,0-1.44,0-2.17s.1-1.43.17-2.15a31.21,31.21,0,0,1,.71-4.29,34,34,0,0,1,3.16-8.38,28.82,28.82,0,0,1,6-7.71,24.43,24.43,0,0,1,4.36-3.15,21.07,21.07,0,0,1,5.28-2.12,19.49,19.49,0,0,1,5.72-.6,19.64,19.64,0,0,1,9.95,3.24c.35.22.67.46,1,.69s.65.47.95.73c.59.53,1.18,1,1.71,1.6a22.23,22.23,0,0,1,2.8,3.57c.4.62.75,1.3,1.1,2a20.92,20.92,0,0,1,.87,2.12l-.56.7a42.71,42.71,0,0,0-6.49-4.07,22.93,22.93,0,0,0-7.1-2.4,15.45,15.45,0,0,0-7.28.56,17.7,17.7,0,0,0-6.28,3.82,29.86,29.86,0,0,0-4.86,5.75,55,55,0,0,0-3.71,6.68,71.27,71.27,0,0,0-2.88,7.13c-.87,2.42-1.61,4.89-2.23,7.37Z"/><g class="cls-5"><ellipse class="cls-6" cx="181.01" cy="248.13" rx="24.85" ry="21.81" transform="matrix(0.08, -1, 1, 0.08, -81.52, 407.54)"/><path d="M180.57,274.08c-.58,0-1.17,0-1.75-.07a21.52,21.52,0,0,1-15.56-9,27.61,27.61,0,0,1-5.09-18.81c1.21-14.27,12.44-25,25-23.94s21.86,13.55,20.65,27.82h0a27.68,27.68,0,0,1-8.19,17.68A21.7,21.7,0,0,1,180.57,274.08Zm.91-49.66c-10.73,0-20,9.52-21.08,22a25.37,25.37,0,0,0,4.67,17.29,18.85,18.85,0,0,0,29,2.46,25.39,25.39,0,0,0,7.51-16.25c1.11-13-7.24-24.43-18.6-25.39C182.5,224.44,182,224.42,181.48,224.42Z"/><path d="M193,251.51a11.83,11.83,0,1,1-10.79-12.78A11.84,11.84,0,0,1,193,251.51Z"/><path class="cls-2" d="M181.9,242.18c-.16,1.91-2.93,3.23-6.18,2.95s-5.77-2-5.61-3.95,2.94-3.23,6.19-3S182.07,240.27,181.9,242.18Z"/><path class="cls-2" d="M183.85,262.41c-.15,1.77-1.28,3.12-2.52,3s-2.14-1.63-2-3.4,1.28-3.12,2.53-3S184,260.64,183.85,262.41Z"/></g><g class="cls-7"><ellipse class="cls-6" cx="275.39" cy="194.39" rx="26.06" ry="22.87" transform="translate(58.43 452.38) rotate(-85.16)"/><path d="M274.9,221.56c-.6,0-1.2,0-1.81-.08a22.54,22.54,0,0,1-16.28-9.42,29.83,29.83,0,0,1,3.24-38.2A22.07,22.07,0,0,1,294,176.73a29,29,0,0,1,5.33,19.69h0C298.08,210.67,287.33,221.56,274.9,221.56Zm1-52.09a20.51,20.51,0,0,0-14.25,6,27.6,27.6,0,0,0-3,35.26,20.32,20.32,0,0,0,14.66,8.52c12,1,22.61-9.32,23.77-23l1.12.1-1.12-.1a26.68,26.68,0,0,0-4.9-18.17,20.32,20.32,0,0,0-14.66-8.52C277,169.5,276.4,169.47,275.86,169.47Z"/><path d="M288.42,196.74a13.19,13.19,0,1,1-12-14.25A13.18,13.18,0,0,1,288.42,196.74Z"/><path class="cls-2" d="M276.07,186.34c-.18,2.12-3.27,3.6-6.9,3.29s-6.42-2.28-6.24-4.41,3.27-3.6,6.9-3.29S276.25,184.21,276.07,186.34Z"/><path class="cls-2" d="M278.24,208.88c-.17,2-1.43,3.48-2.82,3.36s-2.38-1.81-2.21-3.78,1.43-3.48,2.82-3.36S278.41,206.91,278.24,208.88Z"/></g><path class="cls-3" d="M288.11,263.38s11.52-81.63,55.77-67.3"/><path class="cls-4" d="M288.11,263.38c.06-2.08.25-4.16.48-6.23s.52-4.13.86-6.19c.68-4.12,1.58-8.2,2.67-12.24a100.5,100.5,0,0,1,9.37-23.42c1.06-1.84,2.2-3.65,3.42-5.4a56.9,56.9,0,0,1,4-5A37.73,37.73,0,0,1,319,196.71a29,29,0,0,1,6.08-2.43,25.7,25.7,0,0,1,6.44-.89,28.18,28.18,0,0,1,6.37.67c1,.27,2.05.52,3,.87s1.95.75,2.91,1.15c-1-.15-2-.39-3.07-.49s-2-.22-3.05-.3a32.49,32.49,0,0,0-6,.3,26.21,26.21,0,0,0-5.71,1.49,28.4,28.4,0,0,0-5.2,2.68,38.75,38.75,0,0,0-8.69,7.89,67.07,67.07,0,0,0-6.76,9.88,142.41,142.41,0,0,0-9.91,22.24c-1.39,3.85-2.67,7.76-3.89,11.69-.61,2-1.19,3.95-1.78,5.94-.3,1-.58,2-.85,3S288.39,262.38,288.11,263.38Z"/><path class="cls-4" d="M194.74,355.61a172.14,172.14,0,0,0,23.9-6.2,188.14,188.14,0,0,0,22.67-9.23c3.66-1.78,7.25-3.7,10.76-5.72s6.93-4.2,10.26-6.5,6.58-4.69,9.71-7.24,6.16-5.22,9.07-8,5.72-5.69,8.36-8.74,5.22-6.15,7.6-9.41,4.68-6.59,6.8-10c1.1-1.7,2.07-3.48,3.11-5.22l1.46-2.67.74-1.33.69-1.36,1.38-2.72,1.32-2.75.66-1.38.61-1.39,1.25-2.8c1.57-3.76,3.1-7.56,4.44-11.43l1-2.9.95-2.94c.66-1.94,1.2-3.93,1.81-5.9.32-1,.58-2,.85-3l.82-3c.54-2,1-4,1.55-6-.07,1-.16,2.07-.26,3.1s-.17,2.07-.29,3.11l-.4,3.09c-.14,1-.27,2.06-.44,3.09-.33,2.05-.66,4.11-1.09,6.15l-.63,3.07-.72,3c-.47,2-1.05,4-1.61,6.07-.26,1-.6,2-.91,3s-.63,2-1,3l-1.05,3-.53,1.48-.58,1.47-1.16,2.93-1.26,2.89-.63,1.45-.68,1.43L312,282c-1,1.87-1.92,3.76-3,5.58a124.57,124.57,0,0,1-6.72,10.75,128.49,128.49,0,0,1-16.5,19.28c-3.07,2.92-6.24,5.73-9.57,8.34s-6.78,5.08-10.33,7.37A140.65,140.65,0,0,1,243.48,345a147.17,147.17,0,0,1-24,7.59c-4.08.9-8.19,1.65-12.33,2.18-2.07.25-4.14.47-6.21.63S196.82,355.65,194.74,355.61Z"/><path class="cls-4" d="M310.22,255.55a30,30,0,0,1,.33-7.27,37.2,37.2,0,0,1,1.88-7.12,34.23,34.23,0,0,1,3.37-6.67c.36-.52.7-1.05,1.09-1.55s.78-1,1.18-1.49l1.3-1.4c.45-.46.93-.88,1.39-1.33l.35-.32.38-.3.76-.59c.25-.19.49-.4.76-.58l.8-.54a15.33,15.33,0,0,1,1.65-1c.56-.3,1.11-.64,1.7-.89l1.77-.74c.59-.24,1.21-.4,1.81-.6l.91-.27.93-.2c.62-.12,1.23-.28,1.86-.36A30.8,30.8,0,0,1,349,223.83c-.61.06-1.21.09-1.81.13s-1.19,0-1.78.1-1.17.11-1.76.17l-.87.07c-.29,0-.58.08-.86.12l-1.72.24c-.57.08-1.13.22-1.69.33s-1.12.19-1.66.36-1.09.31-1.63.44a32.69,32.69,0,0,0-6.12,2.53c-.48.25-.94.55-1.41.83a13.42,13.42,0,0,0-1.36.91l-.67.46c-.22.16-.43.34-.64.51l-.63.51-.32.26-.3.28a32.24,32.24,0,0,0-4.47,4.85,47.48,47.48,0,0,0-3.64,5.69A75.45,75.45,0,0,0,310.22,255.55Z"/><path class="cls-4" d="M280.42,334.52c2.57-2.35,5.09-4.5,7.57-6.69s4.89-4.38,7.24-6.62,4.62-4.55,6.84-6.95c.54-.61,1.1-1.21,1.67-1.81s1.06-1.26,1.61-1.89l.85-.93c.26-.33.51-.66.79-1,.53-.66,1.1-1.31,1.7-1.95-.16.85-.36,1.7-.6,2.54-.11.42-.24.84-.37,1.26l-.48,1.2c-.34.8-.68,1.61-1.06,2.4s-.84,1.52-1.28,2.27a39.13,39.13,0,0,1-6.57,8.09,45.18,45.18,0,0,1-8.29,6.23c-.76.41-1.52.84-2.29,1.22s-1.56.75-2.36,1.07l-1.21.48-1.23.42A19.52,19.52,0,0,1,280.42,334.52Z"/><path class="cls-3" d="M237.53,433.6s4-22.48-9-30.29c-17.4-10.44-28.05-21.09-10.1-34.56,19.59-14.69,50.71,1.57,50.94,19.53,0,0,28.21,3.8,40.39,1.57,13-2.4,13.68,9.49,13,12.86,0,0,16.45-4,15.71,10.62,0,0,12.79,1.87,10.09,12.87,0,0-10.63,49.85-64.25,55S235.32,443.28,237.53,433.6Z"/><path class="cls-4" d="M275.84,483.43c-14.56,0-25.47-4-32.51-12.05-12.48-14.19-8.16-35.5-7.57-38.13.17-1,3.43-21.47-8.13-28.4-9.76-5.86-19.79-13-20.24-21.75-.28-5.37,3-10.53,10-15.78,11.71-8.79,26.41-6.73,36.26-1.88s16.59,13.08,17.45,21.24c5.91.74,28.17,3.27,38.36,1.4,5.07-.93,9,0,11.77,2.79s3.53,6.92,3.54,9.7c3-.35,8.18-.39,11.77,2.58,2.41,2,3.68,4.93,3.78,8.74,2.25.59,6.38,2.11,8.72,5.59a11,11,0,0,1,1.31,9.12A77.64,77.64,0,0,1,338,452.81c-8.76,12.26-25.16,27.45-53.53,30.19Q280,483.44,275.84,483.43ZM236.11,364.85a27.16,27.16,0,0,0-16.58,5.34c-6,4.48-8.77,8.64-8.56,12.72.37,7.1,10.08,13.81,18.5,18.86,13.92,8.35,10,31.18,9.82,32.15V434c-1.84,8.06-2.49,24.5,6.74,35,7.58,8.62,20.41,12.12,38.14,10.41,21.65-2.08,38.77-11.7,50.87-28.58a75.56,75.56,0,0,0,11.81-25v-.05a7.53,7.53,0,0,0-.79-6.27c-2.36-3.53-7.77-4.39-7.83-4.39l-1.61-.25.08-1.62c.18-3.37-.65-5.83-2.45-7.32-3.2-2.64-9.05-1.95-11-1.47l-2.74.68.55-2.77c.34-1.71.22-6.34-2.36-9-1.86-1.88-4.74-2.48-8.57-1.78-12.31,2.27-39.79-1.4-41-1.56l-1.54-.2,0-1.55c-.09-7.33-6.19-15-15.53-19.64A36.91,36.91,0,0,0,236.11,364.85Z"/><path class="cls-3" d="M260.64,397.92s13.13-22.69,24.68-39c17.2-24.36,43.53-36.46,48.44-19.3,3.09,10.8-18.15,38.63-18.15,38.63s-19.3,25.28-17.95,36.54"/><path class="cls-4" d="M260.64,397.92c3.63-7.21,7.57-14.27,11.61-21.27,2-3.49,4.14-7,6.27-10.4s4.33-6.81,6.69-10.19c1.19-1.68,2.43-3.31,3.73-4.91s2.68-3.13,4.1-4.63a75.79,75.79,0,0,1,9.21-8.31A52.82,52.82,0,0,1,313,331.73a30.87,30.87,0,0,1,6.19-2,18.18,18.18,0,0,1,6.84-.2,11.74,11.74,0,0,1,6.49,3.38,12.62,12.62,0,0,1,2.12,3,14.62,14.62,0,0,1,.73,1.62c.09.27.2.54.28.82l.13.41a3.35,3.35,0,0,1,.13.44,11.81,11.81,0,0,1,.29,3.69,20.93,20.93,0,0,1-.52,3.35,38.15,38.15,0,0,1-2,6.06,86.46,86.46,0,0,1-5.73,11q-1.59,2.63-3.29,5.18c-1.13,1.69-2.3,3.36-3.49,5s-2.4,3.29-3.65,4.9c-.64.82-1.25,1.58-1.85,2.38l-1.82,2.39c-2.4,3.2-4.7,6.49-6.87,9.85a102,102,0,0,0-6,10.37,43,43,0,0,0-2.3,5.53,16.35,16.35,0,0,0-1,5.88,16.11,16.11,0,0,1,.35-6.06,42,42,0,0,1,1.82-5.84,94.31,94.31,0,0,1,5.26-11c2-3.55,4.13-7,6.36-10.41.56-.85,1.12-1.69,1.71-2.53l1.76-2.47c1.15-1.63,2.27-3.29,3.37-5s2.16-3.36,3.2-5.06,2.07-3.41,3-5.14a90.25,90.25,0,0,0,5.21-10.59,35.45,35.45,0,0,0,1.73-5.42,15.69,15.69,0,0,0,.37-2.63,7.43,7.43,0,0,0-.19-2.32,1.36,1.36,0,0,0-.08-.28l-.1-.31c-.06-.21-.14-.41-.21-.61a11.93,11.93,0,0,0-.52-1.14,8,8,0,0,0-1.38-1.93,7.38,7.38,0,0,0-4.08-2.08,14.22,14.22,0,0,0-5.18.16,27.78,27.78,0,0,0-5.32,1.68,50.53,50.53,0,0,0-10,5.82A86.4,86.4,0,0,0,288,358.14c-1.21,1.56-2.37,3.2-3.56,4.82L281,367.87c-2.33,3.29-4.6,6.61-6.86,9.95C269.56,384.47,265.13,391.21,260.64,397.92Z"/><path d="M229.4,146.36c1,1.41,2,2.78,2.86,4.12s1.77,2.64,2.64,3.9c1.73,2.52,3.39,4.9,5.09,7,.42.52.84,1,1.27,1.5s.83.94,1.26,1.36a24.47,24.47,0,0,0,2.49,2.23,13.68,13.68,0,0,0,2.37,1.51c.19.08.37.17.56.27l.56.22c.19.06.37.15.56.2s.37.13.57.17a13,13,0,0,0,2.48.41l.7,0h.74c.51,0,1-.06,1.58-.11a29,29,0,0,0,3.49-.57c1.23-.27,2.52-.6,3.84-1,2.65-.77,5.44-1.75,8.37-2.76l1.12-.37c.37-.13.73-.28,1.11-.4l2.3-.76c.77-.27,1.58-.49,2.37-.75s1.63-.49,2.5-.68l.6.66c-2.27,2.16-4.62,4.23-7.09,6.18a63.29,63.29,0,0,1-7.87,5.24c-.7.38-1.4.75-2.12,1.1s-1.44.67-2.19.95a28.41,28.41,0,0,1-4.58,1.46,20.15,20.15,0,0,1-9.67,0,17.06,17.06,0,0,1-4.51-1.95,20,20,0,0,1-3.81-3,29.31,29.31,0,0,1-5.46-7.87,50.72,50.72,0,0,1-3.3-8.88,61,61,0,0,1-1.72-9.29Z"/><path d="M141.08,258a52.89,52.89,0,0,1,1.91-10q.72-2.46,1.64-4.86a51,51,0,0,1,2.12-4.71c.4-.77.81-1.53,1.25-2.28s.91-1.47,1.4-2.19a36.52,36.52,0,0,1,3.26-4.11,28.7,28.7,0,0,1,3.93-3.53,25,25,0,0,1,2.21-1.48l1.15-.67,1.18-.6a26.49,26.49,0,0,1,10.23-2.68,24.73,24.73,0,0,1,10.4,1.7,24,24,0,0,1,8.64,5.82,22.27,22.27,0,0,1,5.17,8.82,25.24,25.24,0,0,0-6.07-7.88,24.39,24.39,0,0,0-18-5.93,25.92,25.92,0,0,0-9.22,2.57l-1.08.54-1.05.6a20.5,20.5,0,0,0-2,1.31,28.81,28.81,0,0,0-3.64,3.17,41.12,41.12,0,0,0-5.91,7.84,65.25,65.25,0,0,0-4.35,9A80.35,80.35,0,0,0,141.08,258Z"/><path d="M231.13,216.82a41.15,41.15,0,0,1-1-6.82,47.42,47.42,0,0,1,0-6.95c.09-1.16.21-2.32.38-3.48s.4-2.3.67-3.44a37.33,37.33,0,0,1,2.25-6.69A33.18,33.18,0,0,1,237,183.3a31.61,31.61,0,0,1,2.3-2.73,30.35,30.35,0,0,1,2.6-2.47c.45-.39.92-.75,1.39-1.12s1-.71,1.46-1a33.93,33.93,0,0,1,3.07-1.82,38.74,38.74,0,0,1,6.56-2.67l.08,0h0a71.69,71.69,0,0,1,7.6-1.26,29.2,29.2,0,0,1,7.81.26,27.57,27.57,0,0,1,7.36,2.44,36,36,0,0,1,6.44,4.12c-1.11-.62-2.23-1.2-3.37-1.74s-2.29-1-3.46-1.45a28.63,28.63,0,0,0-3.57-1.07,25,25,0,0,0-3.63-.61,29.42,29.42,0,0,0-7.32.22c-2.43.37-4.86.93-7.32,1.53l.11,0a41,41,0,0,0-6.07,2.64,32.51,32.51,0,0,0-5.45,3.67,31.69,31.69,0,0,0-8,10.31c-.49,1-.93,2-1.33,3s-.78,2.08-1.1,3.15-.6,2.16-.83,3.25-.46,2.2-.64,3.31A61.11,61.11,0,0,0,231.13,216.82Z"/></g></g></svg>